<?xml version="1.0" encoding="UTF-8"?>
<!DOCTYPE svg PUBLIC "-//W3C//DTD SVG 1.1//EN" "http://www.w3.org/Graphics/SVG/1.1/DTD/svg11.dtd">
<svg xmlns="http://www.w3.org/2000/svg" version="1.1" width="5452px" height="3810px" style="shape-rendering:geometricPrecision; text-rendering:geometricPrecision; image-rendering:optimizeQuality; fill-rule:evenodd; clip-rule:evenodd" xmlns:xlink="http://www.w3.org/1999/xlink">
<g><path style="opacity:1" fill="#090909" d="M 811.5,-0.5 C 868.833,-0.5 926.167,-0.5 983.5,-0.5C 1003.66,3.83352 1024,8.00019 1044.5,12C 1076.58,16.8667 1103.24,31.3667 1124.5,55.5C 1124.16,56.3382 1123.49,56.6716 1122.5,56.5C 1070.98,42.4358 1019.64,27.7691 968.5,12.5C 967.791,11.596 966.791,11.2627 965.5,11.5C 965.169,36.6722 965.502,61.6722 966.5,86.5C 967.903,137.837 967.736,189.17 966,240.5C 959.041,395.563 950.874,550.563 941.5,705.5C 940.956,715.121 942.956,724.121 947.5,732.5C 947.427,734.027 948.094,735.027 949.5,735.5C 955.634,740.407 962.301,744.573 969.5,748C 993.575,757.025 1017.24,767.025 1040.5,778C 1078.37,796.764 1115.7,816.264 1152.5,836.5C 1152.16,837.338 1151.49,837.672 1150.5,837.5C 1139.96,833.9 1129.63,829.733 1119.5,825C 1082.87,804.848 1044.53,788.848 1004.5,777C 937.499,759.22 870.166,757.887 802.5,773C 759.669,784.943 716.669,796.276 673.5,807C 491.259,849.977 308.926,892.477 126.5,934.5C 125.167,934.5 123.833,934.5 122.5,934.5C 122.263,935.791 122.596,936.791 123.5,937.5C 132.673,953.844 141.34,970.511 149.5,987.5C 149.158,988.338 148.492,988.672 147.5,988.5C 102.631,974.433 57.9645,959.766 13.5,944.5C 13.1667,943.833 12.8333,943.167 12.5,942.5C 15.1262,934.581 18.7928,927.248 23.5,920.5C 24.9063,920.027 25.573,919.027 25.5,917.5C 27.8907,912.721 31.224,908.721 35.5,905.5C 37.8333,903.833 39.8333,901.833 41.5,899.5C 43.8797,896.119 46.8797,893.453 50.5,891.5C 52.0269,891.573 53.0269,890.906 53.5,889.5C 61.2759,883.101 69.9426,877.934 79.5,874C 93.5436,868.208 107.877,863.208 122.5,859C 290.727,815.693 459.727,775.693 629.5,739C 662.218,731.946 680.718,711.78 685,678.5C 713.245,481.454 743.911,284.787 777,88.5C 779.071,80.619 781.738,72.9524 785,65.5C 792.686,49.4572 800.853,33.7906 809.5,18.5C 810.404,19.209 810.737,20.209 810.5,21.5C 805.411,37.8561 801.578,54.5228 799,71.5C 768.432,254.909 737.432,438.243 706,621.5C 703.211,636.39 702.211,651.39 703,666.5C 703.732,671.766 705.232,676.766 707.5,681.5C 707.427,683.027 708.094,684.027 709.5,684.5C 717.452,691.98 726.785,697.147 737.5,700C 762.652,705.897 787.985,710.897 813.5,715C 834.245,722.681 855.579,725.348 877.5,723C 882.288,721.793 886.955,720.293 891.5,718.5C 893.027,718.573 894.027,717.906 894.5,716.5C 896.404,716.262 897.738,715.262 898.5,713.5C 898.5,712.833 898.833,712.5 899.5,712.5C 901.587,711.415 902.92,709.749 903.5,707.5C 904.906,707.027 905.573,706.027 905.5,704.5C 911.656,690.872 914.822,676.539 915,661.5C 920.988,485.429 928.654,309.429 938,133.5C 939.217,105.513 939.717,77.5133 939.5,49.5C 939.5,39.1667 939.5,28.8333 939.5,18.5C 937.167,18.5 934.833,18.5 932.5,18.5C 897.129,17.0076 861.796,15.0076 826.5,12.5C 822.206,12.0889 818.04,11.0889 814,9.5C 813.292,10.3805 812.458,11.0472 811.5,11.5C 810.234,7.53232 810.234,3.53232 811.5,-0.5 Z"/></g>
<g><path style="opacity:0.878" fill="#797878" d="M 968.5,12.5 C 966.51,36.8107 965.843,61.4774 966.5,86.5C 965.502,61.6722 965.169,36.6722 965.5,11.5C 966.791,11.2627 967.791,11.596 968.5,12.5 Z"/></g>
<g><path style="opacity:0.886" fill="#a6a6a6" d="M 826.5,12.5 C 822.167,12.5 817.833,12.5 813.5,12.5C 813.072,15.7846 812.072,18.7846 810.5,21.5C 810.737,20.209 810.404,19.209 809.5,18.5C 810.455,16.2543 811.122,13.921 811.5,11.5C 812.458,11.0472 813.292,10.3805 814,9.5C 818.04,11.0889 822.206,12.0889 826.5,12.5 Z"/></g>
<g><path style="opacity:0.878" fill="#e1e1e1" d="M 932.5,18.5 C 934.833,18.5 937.167,18.5 939.5,18.5C 939.5,28.8333 939.5,39.1667 939.5,49.5C 938.506,39.6806 938.173,29.6806 938.5,19.5C 936.265,19.7947 934.265,19.4614 932.5,18.5 Z"/></g>
<g><path style="opacity:1" fill="#c2c2c2" d="M 1124.5,55.5 C 1125.88,56.3023 1125.72,56.9689 1124,57.5C 1123.24,57.4301 1122.74,57.0967 1122.5,56.5C 1123.49,56.6716 1124.16,56.3382 1124.5,55.5 Z"/></g>
<g><path style="opacity:1" fill="#101010" d="M 1203.5,147.5 C 1205.5,147.5 1207.5,147.5 1209.5,147.5C 1226.97,235.025 1244.64,322.525 1262.5,410C 1262.25,411.326 1261.58,412.326 1260.5,413C 1256.64,413.706 1252.8,414.539 1249,415.5C 1248.23,415.355 1247.56,415.022 1247,414.5C 1226.17,327.833 1205.33,241.167 1184.5,154.5C 1184.61,153.558 1184.94,152.725 1185.5,152C 1191.7,150.799 1197.7,149.299 1203.5,147.5 Z"/></g>
<g><path style="opacity:1" fill="#0b0b0b" d="M 1746.5,796.5 C 1745.24,797.623 1745.58,798.289 1747.5,798.5C 1794.04,809.053 1840.38,820.386 1886.5,832.5C 1885.75,833.736 1885.42,835.07 1885.5,836.5C 1883.54,838.148 1881.21,838.815 1878.5,838.5C 1734.56,824.703 1590.56,811.536 1446.5,799C 1425.65,796.787 1405.65,791.454 1386.5,783C 1382.44,781.311 1378.77,779.144 1375.5,776.5C 1375.03,775.094 1374.03,774.427 1372.5,774.5C 1370.97,774.573 1369.97,773.906 1369.5,772.5C 1369.03,771.094 1368.03,770.427 1366.5,770.5C 1344.48,754.293 1328.65,733.293 1319,707.5C 1313,692.499 1308,677.166 1304,661.5C 1296,629.67 1288.83,597.67 1282.5,565.5C 1285.2,563.89 1288.2,562.89 1291.5,562.5C 1365.49,558.038 1439.49,553.538 1513.5,549C 1561.92,545.191 1610.25,540.525 1658.5,535C 1792.53,530.962 1923.53,548.962 2051.5,589C 2073.07,596.299 2094.07,604.966 2114.5,615C 2109.6,641.442 2096.27,662.776 2074.5,679C 2055.33,691.249 2034.66,700.249 2012.5,706C 2001.17,709.333 1989.83,712.667 1978.5,716C 1918.12,731.511 1857.79,747.177 1797.5,763C 1777.66,770.038 1760.66,781.205 1746.5,796.5 Z M 2094.5,629.5 C 2095.83,630.5 2095.83,631.5 2094.5,632.5C 2091.24,633.774 2088.24,635.44 2085.5,637.5C 2083.97,637.427 2082.97,638.094 2082.5,639.5C 2071.99,645.251 2061.66,651.251 2051.5,657.5C 2049.97,657.427 2048.97,658.094 2048.5,659.5C 1937.7,702.153 1824.04,734.987 1707.5,758C 1619.83,774.417 1531.49,779.75 1442.5,774C 1420.49,773.067 1399.49,768.067 1379.5,759C 1373.09,755.428 1367.43,750.928 1362.5,745.5C 1362.26,743.596 1361.26,742.262 1359.5,741.5C 1359.57,739.973 1358.91,738.973 1357.5,738.5C 1348.64,718.321 1344.64,697.155 1345.5,675C 1345.72,663.456 1346.38,651.956 1347.5,640.5C 1403.11,626.514 1458.78,612.681 1514.5,599C 1581.69,582.58 1649.69,570.914 1718.5,564C 1850.2,550.115 1975.53,571.949 2094.5,629.5 Z"/></g>
<g><path style="opacity:0.878" fill="#8f8e8e" d="M 1291.5,562.5 C 1288.2,562.89 1285.2,563.89 1282.5,565.5C 1281.6,564.791 1281.26,563.791 1281.5,562.5C 1284.83,562.5 1288.17,562.5 1291.5,562.5 Z"/></g>
<g><path style="opacity:1" fill="#8c8c8b" d="M 2094.5,629.5 C 2098.5,630.5 2098.5,631.5 2094.5,632.5C 2095.83,631.5 2095.83,630.5 2094.5,629.5 Z"/></g>
<g><path style="opacity:1" fill="#898988" d="M 2085.5,637.5 C 2085.03,638.906 2084.03,639.573 2082.5,639.5C 2082.97,638.094 2083.97,637.427 2085.5,637.5 Z"/></g>
<g><path style="opacity:1" fill="#757574" d="M 2051.5,657.5 C 2051.03,658.906 2050.03,659.573 2048.5,659.5C 2048.97,658.094 2049.97,657.427 2051.5,657.5 Z"/></g>
<g><path style="opacity:0.965" fill="#989797" d="M 707.5,681.5 C 708.906,681.973 709.573,682.973 709.5,684.5C 708.094,684.027 707.427,683.027 707.5,681.5 Z"/></g>
<g><path style="opacity:0.961" fill="#858484" d="M 905.5,704.5 C 905.573,706.027 904.906,707.027 903.5,707.5C 903.427,705.973 904.094,704.973 905.5,704.5 Z"/></g>
<g><path style="opacity:1" fill="#888787" d="M 903.5,707.5 C 902.92,709.749 901.587,711.415 899.5,712.5C 900.08,710.251 901.413,708.585 903.5,707.5 Z"/></g>
<g><path style="opacity:1" fill="#7c7c7c" d="M 898.5,713.5 C 897.738,715.262 896.404,716.262 894.5,716.5C 895.262,714.738 896.596,713.738 898.5,713.5 Z"/></g>
<g><path style="opacity:1" fill="#858584" d="M 894.5,716.5 C 894.027,717.906 893.027,718.573 891.5,718.5C 891.973,717.094 892.973,716.427 894.5,716.5 Z"/></g>
<g><path style="opacity:0.941" fill="#757574" d="M 947.5,732.5 C 948.906,732.973 949.573,733.973 949.5,735.5C 948.094,735.027 947.427,734.027 947.5,732.5 Z"/></g>
<g><path style="opacity:1" fill="#787777" d="M 1357.5,738.5 C 1358.91,738.973 1359.57,739.973 1359.5,741.5C 1358.09,741.027 1357.43,740.027 1357.5,738.5 Z"/></g>
<g><path style="opacity:1" fill="#848383" d="M 1359.5,741.5 C 1361.26,742.262 1362.26,743.596 1362.5,745.5C 1360.74,744.738 1359.74,743.404 1359.5,741.5 Z"/></g>
<g><path style="opacity:0.922" fill="#7d7c7c" d="M 1366.5,770.5 C 1368.03,770.427 1369.03,771.094 1369.5,772.5C 1367.97,772.573 1366.97,771.906 1366.5,770.5 Z"/></g>
<g><path style="opacity:0.941" fill="#949493" d="M 1372.5,774.5 C 1374.03,774.427 1375.03,775.094 1375.5,776.5C 1373.97,776.573 1372.97,775.906 1372.5,774.5 Z"/></g>
<g><path style="opacity:0.91" fill="#b8b8b8" d="M 1746.5,796.5 C 1746.83,797.167 1747.17,797.833 1747.5,798.5C 1745.58,798.289 1745.24,797.623 1746.5,796.5 Z"/></g>
<g><path style="opacity:0.894" fill="#797978" d="M 1885.5,836.5 C 1885.5,837.5 1885.5,838.5 1885.5,839.5C 1882.94,839.802 1880.61,839.468 1878.5,838.5C 1881.21,838.815 1883.54,838.148 1885.5,836.5 Z"/></g>
<g><path style="opacity:1" fill="#a9a9a9" d="M 1152.5,836.5 C 1156.81,838.653 1161.14,840.82 1165.5,843C 1160.1,842.256 1155.1,840.423 1150.5,837.5C 1151.49,837.672 1152.16,837.338 1152.5,836.5 Z"/></g>
<g><path style="opacity:1" fill="#dedede" d="M 1182.5,851.5 C 1181.53,851.013 1180.53,850.513 1179.5,850C 1181.16,849.275 1182.16,849.775 1182.5,851.5 Z"/></g>
<g><path style="opacity:0.878" fill="#868685" d="M 1182.5,851.5 C 1185.39,851.194 1188.05,851.527 1190.5,852.5C 1187.94,852.198 1185.61,852.532 1183.5,853.5C 1182.66,853.158 1182.33,852.492 1182.5,851.5 Z"/></g>
<g><path style="opacity:1" fill="#050505" d="M 3308.5,1012.5 C 3308.82,1014.05 3309.82,1014.71 3311.5,1014.5C 3371.78,1047.1 3425.12,1088.76 3471.5,1139.5C 3472.08,1141.75 3473.41,1143.42 3475.5,1144.5C 3482.51,1151.51 3489.17,1158.84 3495.5,1166.5C 3495.43,1168.03 3496.09,1169.03 3497.5,1169.5C 3500.96,1172.41 3503.96,1175.75 3506.5,1179.5C 3506.43,1181.03 3507.09,1182.03 3508.5,1182.5C 3513.51,1187.51 3518.18,1192.85 3522.5,1198.5C 3522.43,1200.03 3523.09,1201.03 3524.5,1201.5C 3525.83,1202.17 3526.83,1203.17 3527.5,1204.5C 3527.43,1206.03 3528.09,1207.03 3529.5,1207.5C 3539.6,1218.77 3549.93,1229.94 3560.5,1241C 3568,1247.58 3576,1253.41 3584.5,1258.5C 3584.82,1260.05 3585.82,1260.71 3587.5,1260.5C 3616.75,1275.52 3647.08,1278.02 3678.5,1268C 3812.7,1214.82 3947.36,1162.82 4082.5,1112C 4180.94,1072.28 4279.94,1033.95 4379.5,997C 4430.27,978.855 4481.6,962.521 4533.5,948C 4572.67,938.966 4612.34,935.633 4652.5,938C 4711.95,942.112 4770.95,949.779 4829.5,961C 4886.07,971.18 4942.4,982.514 4998.5,995C 5079.31,1013.37 5159.98,1032.37 5240.5,1052C 5259.6,1057.88 5278.26,1064.88 5296.5,1073C 5321.17,1084.67 5345.83,1096.33 5370.5,1108C 5380.84,1113.83 5390.84,1120.17 5400.5,1127C 5406.41,1132.4 5411.74,1138.24 5416.5,1144.5C 5416.43,1146.03 5417.09,1147.03 5418.5,1147.5C 5424.97,1156.73 5428.8,1167.06 5430,1178.5C 5431.59,1201.15 5429.59,1223.49 5424,1245.5C 5417.01,1259.49 5406.85,1270.66 5393.5,1279C 5228.41,1349.92 5063.08,1420.25 4897.5,1490C 4800.33,1531.94 4703.33,1574.28 4606.5,1617C 4590.57,1630.27 4576.73,1645.43 4565,1662.5C 4541.16,1695.15 4521.16,1730.15 4505,1767.5C 4502.06,1774.91 4500.23,1782.57 4499.5,1790.5C 4499.48,1792.96 4499.98,1795.3 4501,1797.5C 4505.75,1802.68 4510.25,1808.01 4514.5,1813.5C 4514.43,1815.03 4515.09,1816.03 4516.5,1816.5C 4525.72,1829.31 4531.56,1843.64 4534,1859.5C 4534.86,1865.14 4535.53,1870.81 4536,1876.5C 4536.13,1903.19 4536.8,1929.85 4538,1956.5C 4539.87,1974.26 4545.03,1990.93 4553.5,2006.5C 4553.43,2008.03 4554.09,2009.03 4555.5,2009.5C 4555.43,2011.03 4556.09,2012.03 4557.5,2012.5C 4558.97,2013.44 4559.97,2014.77 4560.5,2016.5C 4560.43,2018.03 4561.09,2019.03 4562.5,2019.5C 4562.43,2021.03 4563.09,2022.03 4564.5,2022.5C 4577.27,2039.65 4583.1,2058.99 4582,2080.5C 4578.3,2099.41 4568.46,2114.24 4552.5,2125C 4524.42,2141.36 4494.09,2150.69 4461.5,2153C 4438.8,2154.59 4416.13,2156.59 4393.5,2159C 4367.07,2160.96 4345.24,2171.8 4328,2191.5C 4325.81,2194.55 4324.14,2197.89 4323,2201.5C 4303.87,2283.4 4276.54,2362.4 4241,2438.5C 4202.66,2518.86 4160,2596.53 4113,2671.5C 4097.07,2693.27 4077.57,2710.94 4054.5,2724.5C 4052.6,2721.66 4051.93,2718.33 4052.5,2714.5C 4055.63,2653.74 4065.46,2594.07 4082,2535.5C 4102.88,2464.2 4128.88,2394.86 4160,2327.5C 4185.68,2271.8 4212.18,2216.47 4239.5,2161.5C 4237.23,2160.79 4234.9,2160.96 4232.5,2162C 4162.9,2181.81 4093.24,2201.31 4023.5,2220.5C 4022.32,2220.28 4021.32,2220.61 4020.5,2221.5C 4020.62,2222.11 4020.96,2222.44 4021.5,2222.5C 4021.43,2224.03 4022.09,2225.03 4023.5,2225.5C 4026.86,2229.53 4029.86,2233.87 4032.5,2238.5C 4032.43,2240.03 4033.09,2241.03 4034.5,2241.5C 4034.43,2243.03 4035.09,2244.03 4036.5,2244.5C 4039.31,2247.45 4041.65,2250.78 4043.5,2254.5C 4043.43,2256.03 4044.09,2257.03 4045.5,2257.5C 4045.43,2259.03 4046.09,2260.03 4047.5,2260.5C 4050.31,2263.45 4052.65,2266.78 4054.5,2270.5C 4054.43,2272.03 4055.09,2273.03 4056.5,2273.5C 4056.43,2275.03 4057.09,2276.03 4058.5,2276.5C 4076.84,2302.42 4080.68,2330.42 4070,2360.5C 4058.53,2385.29 4039.37,2400.46 4012.5,2406C 3983.1,2409.18 3953.6,2410.68 3924,2410.5C 3896.48,2410.26 3868.98,2409.43 3841.5,2408C 3816.37,2408.55 3793.04,2402.55 3771.5,2390C 3755.84,2374.84 3740.18,2359.67 3724.5,2344.5C 3724.03,2343.09 3723.03,2342.43 3721.5,2342.5C 3713.52,2336.51 3705.85,2330.18 3698.5,2323.5C 3698.03,2322.09 3697.03,2321.43 3695.5,2321.5C 3694.83,2321.5 3694.5,2321.17 3694.5,2320.5C 3694.03,2319.09 3693.03,2318.43 3691.5,2318.5C 3689.77,2317.97 3688.44,2316.97 3687.5,2315.5C 3687.03,2314.09 3686.03,2313.43 3684.5,2313.5C 3682.77,2312.97 3681.44,2311.97 3680.5,2310.5C 3680.03,2309.09 3679.03,2308.43 3677.5,2308.5C 3677.03,2307.09 3676.03,2306.43 3674.5,2306.5C 3674.03,2305.09 3673.03,2304.43 3671.5,2304.5C 3671.03,2303.09 3670.03,2302.43 3668.5,2302.5C 3668.03,2301.09 3667.03,2300.43 3665.5,2300.5C 3598.16,2258.94 3525.16,2232.61 3446.5,2221.5C 3448.95,2220.53 3451.61,2220.19 3454.5,2220.5C 3499.15,2224.11 3543.82,2227.61 3588.5,2231C 3710.54,2238.23 3831.88,2231.9 3952.5,2212C 3979.08,2207.1 4005.42,2201.1 4031.5,2194C 4096.66,2174.63 4161.66,2154.79 4226.5,2134.5C 4227.59,2134.38 4228.25,2133.71 4228.5,2132.5C 4228.46,2131.58 4228.12,2130.92 4227.5,2130.5C 4224.86,2113.24 4218.53,2097.58 4208.5,2083.5C 4207.74,2081.74 4206.4,2080.74 4204.5,2080.5C 4190.97,2073.42 4176.97,2072.59 4162.5,2078C 4062.65,2119.24 3959.31,2131.24 3852.5,2114C 3786.63,2103.7 3721.97,2088.37 3658.5,2068C 3319.65,1964.04 2981.32,1858.37 2643.5,1751C 2530.04,1714.85 2417.37,1676.51 2305.5,1636C 2260.93,1619.25 2216.6,1601.92 2172.5,1584C 2139.92,1570.05 2108.92,1553.55 2079.5,1534.5C 2079.03,1533.09 2078.03,1532.43 2076.5,1532.5C 2068.16,1528 2060.16,1523 2052.5,1517.5C 2052.03,1516.09 2051.03,1515.43 2049.5,1515.5C 2027.98,1502.24 2006.98,1488.24 1986.5,1473.5C 1986.03,1472.09 1985.03,1471.43 1983.5,1471.5C 1983.03,1470.09 1982.03,1469.43 1980.5,1469.5C 1980.03,1468.09 1979.03,1467.43 1977.5,1467.5C 1977.03,1466.09 1976.03,1465.43 1974.5,1465.5C 1974.03,1464.09 1973.03,1463.43 1971.5,1463.5C 1964.29,1459.07 1957.29,1454.4 1950.5,1449.5C 1950.03,1448.09 1949.03,1447.43 1947.5,1447.5C 1947.03,1446.09 1946.03,1445.43 1944.5,1445.5C 1944.03,1444.09 1943.03,1443.43 1941.5,1443.5C 1937.56,1441.55 1933.89,1439.22 1930.5,1436.5C 1930.03,1435.09 1929.03,1434.43 1927.5,1434.5C 1924.49,1433.33 1921.82,1431.66 1919.5,1429.5C 1919.03,1428.09 1918.03,1427.43 1916.5,1427.5C 1910.82,1424.66 1905.49,1421.33 1900.5,1417.5C 1900.03,1416.09 1899.03,1415.43 1897.5,1415.5C 1891.82,1412.66 1886.49,1409.33 1881.5,1405.5C 1881.03,1404.09 1880.03,1403.43 1878.5,1403.5C 1875.49,1402.33 1872.82,1400.66 1870.5,1398.5C 1870.03,1397.09 1869.03,1396.43 1867.5,1396.5C 1854.49,1389 1841.82,1381 1829.5,1372.5C 1829.03,1371.09 1828.03,1370.43 1826.5,1370.5C 1815.23,1363.89 1804.23,1356.89 1793.5,1349.5C 1793.03,1348.09 1792.03,1347.43 1790.5,1347.5C 1787.49,1346.33 1784.82,1344.66 1782.5,1342.5C 1782.03,1341.09 1781.03,1340.43 1779.5,1340.5C 1776.49,1339.33 1773.82,1337.66 1771.5,1335.5C 1771.03,1334.09 1770.03,1333.43 1768.5,1333.5C 1765.49,1332.33 1762.82,1330.66 1760.5,1328.5C 1760.03,1327.09 1759.03,1326.43 1757.5,1326.5C 1749.82,1322.33 1742.49,1317.66 1735.5,1312.5C 1735.03,1311.09 1734.03,1310.43 1732.5,1310.5C 1729.49,1309.33 1726.82,1307.66 1724.5,1305.5C 1724.03,1304.09 1723.03,1303.43 1721.5,1303.5C 1718.49,1302.33 1715.82,1300.66 1713.5,1298.5C 1713.03,1297.09 1712.03,1296.43 1710.5,1296.5C 1706.56,1294.55 1702.89,1292.22 1699.5,1289.5C 1699.03,1288.09 1698.03,1287.43 1696.5,1287.5C 1693.49,1286.33 1690.82,1284.66 1688.5,1282.5C 1688.03,1281.09 1687.03,1280.43 1685.5,1280.5C 1682.49,1279.33 1679.82,1277.66 1677.5,1275.5C 1677.03,1274.09 1676.03,1273.43 1674.5,1273.5C 1671.49,1272.33 1668.82,1270.66 1666.5,1268.5C 1666.03,1267.09 1665.03,1266.43 1663.5,1266.5C 1660.49,1265.33 1657.82,1263.66 1655.5,1261.5C 1655.03,1260.09 1654.03,1259.43 1652.5,1259.5C 1649.49,1258.33 1646.82,1256.66 1644.5,1254.5C 1644.03,1253.09 1643.03,1252.43 1641.5,1252.5C 1638.49,1251.33 1635.82,1249.66 1633.5,1247.5C 1633.03,1246.09 1632.03,1245.43 1630.5,1245.5C 1627.49,1244.33 1624.82,1242.66 1622.5,1240.5C 1622.03,1239.09 1621.03,1238.43 1619.5,1238.5C 1616.49,1237.33 1613.82,1235.66 1611.5,1233.5C 1611.03,1232.09 1610.03,1231.43 1608.5,1231.5C 1605.49,1230.33 1602.82,1228.66 1600.5,1226.5C 1600.03,1225.09 1599.03,1224.43 1597.5,1224.5C 1591.82,1221.66 1586.49,1218.33 1581.5,1214.5C 1581.03,1213.09 1580.03,1212.43 1578.5,1212.5C 1572.82,1209.66 1567.49,1206.33 1562.5,1202.5C 1562.03,1201.09 1561.03,1200.43 1559.5,1200.5C 1553.82,1197.66 1548.49,1194.33 1543.5,1190.5C 1543.03,1189.09 1542.03,1188.43 1540.5,1188.5C 1538.57,1187.89 1536.9,1186.89 1535.5,1185.5C 1535.03,1184.09 1534.03,1183.43 1532.5,1183.5C 1504.82,1167 1477.49,1150 1450.5,1132.5C 1450.03,1131.09 1449.03,1130.43 1447.5,1130.5C 1439.66,1126.08 1431.99,1121.41 1424.5,1116.5C 1424.03,1115.09 1423.03,1114.43 1421.5,1114.5C 1411.83,1109.33 1402.49,1103.67 1393.5,1097.5C 1393.03,1096.09 1392.03,1095.43 1390.5,1095.5C 1378.57,1088.89 1366.9,1081.89 1355.5,1074.5C 1355.03,1073.09 1354.03,1072.43 1352.5,1072.5C 1306.66,1045.52 1260.66,1018.69 1214.5,992C 1193.86,981.974 1172.02,977.141 1149,977.5C 1139.83,977.855 1130.66,978.355 1121.5,979C 1064.76,984.545 1008.09,990.712 951.5,997.5C 948.147,997.345 947.814,998.012 950.5,999.5C 994.137,1031.99 1037.8,1064.49 1081.5,1097C 1082.9,1098.06 1083.9,1099.39 1084.5,1101C 1083.53,1103.78 1082.19,1106.28 1080.5,1108.5C 1079.17,1108.17 1077.83,1107.83 1076.5,1107.5C 1060.87,1100.68 1045.2,1093.85 1029.5,1087C 1021.94,1083.06 1014.61,1078.89 1007.5,1074.5C 1007.03,1073.09 1006.03,1072.43 1004.5,1072.5C 1004.03,1071.09 1003.03,1070.43 1001.5,1070.5C 1001.03,1069.09 1000.03,1068.43 998.5,1068.5C 990.851,1062.85 983.518,1056.85 976.5,1050.5C 976.027,1049.09 975.027,1048.43 973.5,1048.5C 936.026,1024.5 894.859,1013.17 850,1014.5C 820.458,1015.65 790.958,1017.48 761.5,1020C 657.544,1028.89 553.544,1037.22 449.5,1045C 396.887,1048.65 344.22,1050.65 291.5,1051C 275.162,1049.11 259.495,1044.78 244.5,1038C 218.488,1025 192.821,1011.5 167.5,997.5C 166.34,995.797 167.007,995.131 169.5,995.5C 196.888,1002.01 224.221,1008.85 251.5,1016C 288.301,1025.68 325.634,1028.68 363.5,1025C 553.539,1012.6 743.206,995.936 932.5,975C 961.251,971.99 989.917,968.323 1018.5,964C 1084.5,953.056 1150.5,942.223 1216.5,931.5C 1218.29,931.785 1219.95,931.452 1221.5,930.5C 1221.38,929.893 1221.04,929.56 1220.5,929.5C 1207.62,904.416 1195.29,879.083 1183.5,853.5C 1185.61,852.532 1187.94,852.198 1190.5,852.5C 1209.15,853.987 1224.15,861.987 1235.5,876.5C 1235.43,878.027 1236.09,879.027 1237.5,879.5C 1242.54,887.15 1245.21,895.65 1245.5,905C 1244.38,913.968 1242.55,922.801 1240,931.5C 1236.94,945.723 1238.44,959.39 1244.5,972.5C 1244.43,974.027 1245.09,975.027 1246.5,975.5C 1252.39,982.889 1259.39,989.055 1267.5,994C 1284.7,1003.77 1302.03,1013.27 1319.5,1022.5C 1319.82,1024.05 1320.82,1024.71 1322.5,1024.5C 1339.66,1033.25 1356.66,1042.25 1373.5,1051.5C 1373.82,1053.05 1374.82,1053.71 1376.5,1053.5C 1408.32,1069.91 1439.99,1086.58 1471.5,1103.5C 1471.82,1105.05 1472.82,1105.71 1474.5,1105.5C 1530.45,1134.47 1585.78,1164.47 1640.5,1195.5C 1640.82,1197.05 1641.82,1197.71 1643.5,1197.5C 1700.69,1230.37 1757.36,1264.04 1813.5,1298.5C 1813.82,1300.05 1814.82,1300.71 1816.5,1300.5C 1849.91,1319.9 1883.58,1338.9 1917.5,1357.5C 1917.82,1359.05 1918.82,1359.71 1920.5,1359.5C 1923.17,1360.83 1925.83,1362.17 1928.5,1363.5C 1928.82,1365.05 1929.82,1365.71 1931.5,1365.5C 1939.32,1369.24 1946.99,1373.24 1954.5,1377.5C 1954.82,1379.05 1955.82,1379.71 1957.5,1379.5C 1962.14,1381.82 1966.81,1384.15 1971.5,1386.5C 1971.82,1388.05 1972.82,1388.71 1974.5,1388.5C 2184.48,1497.89 2402.14,1589.05 2627.5,1662C 2820.5,1725 3013.5,1788 3206.5,1851C 3362.56,1901.69 3519.23,1950.35 3676.5,1997C 3752.36,2018.71 3829.36,2035.04 3907.5,2046C 3948.17,2050 3988.51,2047.67 4028.5,2039C 4080.43,2027.02 4132.43,2015.35 4184.5,2004C 4187.2,2002.99 4189.54,2001.49 4191.5,1999.5C 4192.91,1999.03 4193.57,1998.03 4193.5,1996.5C 4194.81,1993.86 4196.48,1991.53 4198.5,1989.5C 4199.91,1989.03 4200.57,1988.03 4200.5,1986.5C 4209.81,1976.53 4219.47,1966.86 4229.5,1957.5C 4231.91,1956.09 4233.58,1954.09 4234.5,1951.5C 4242.5,1942.83 4250.83,1934.5 4259.5,1926.5C 4262.09,1925.58 4264.09,1923.91 4265.5,1921.5C 4275.28,1911.58 4286.61,1903.75 4299.5,1898C 4314.65,1893.43 4328.31,1886.26 4340.5,1876.5C 4343.83,1875.17 4346.17,1872.83 4347.5,1869.5C 4365.22,1847.97 4372.38,1823.31 4369,1795.5C 4363.27,1783.27 4355.43,1772.6 4345.5,1763.5C 4345.03,1762.09 4344.03,1761.43 4342.5,1761.5C 4339.94,1759.73 4337.61,1757.73 4335.5,1755.5C 4335.03,1754.09 4334.03,1753.43 4332.5,1753.5C 4332.03,1752.09 4331.03,1751.43 4329.5,1751.5C 4151.53,1647.51 3972.53,1545.01 3792.5,1444C 3771.89,1433.2 3750.89,1423.2 3729.5,1414C 3696.1,1400.92 3662.76,1387.76 3629.5,1374.5C 3629.17,1373.83 3628.83,1373.17 3628.5,1372.5C 3634.85,1370.23 3640.35,1366.57 3645,1361.5C 3647.24,1358.12 3647.91,1354.45 3647,1350.5C 3645.44,1345.72 3643.11,1341.39 3640,1337.5C 3633.47,1330.16 3626.64,1323.16 3619.5,1316.5C 3619.03,1315.09 3618.03,1314.43 3616.5,1314.5C 3614.83,1313.5 3613.5,1312.17 3612.5,1310.5C 3611.74,1308.74 3610.4,1307.74 3608.5,1307.5C 3606.5,1305.83 3604.5,1304.17 3602.5,1302.5C 3602.5,1300.5 3601.5,1299.5 3599.5,1299.5C 3567.2,1268.86 3535.53,1237.53 3504.5,1205.5C 3504.03,1204.09 3503.03,1203.43 3501.5,1203.5C 3497.5,1199.83 3493.5,1196.17 3489.5,1192.5C 3489.5,1190.5 3488.5,1189.5 3486.5,1189.5C 3484.83,1188.5 3483.5,1187.17 3482.5,1185.5C 3481.42,1183.41 3479.75,1182.08 3477.5,1181.5C 3476.5,1181.17 3475.83,1180.5 3475.5,1179.5C 3475.03,1178.09 3474.03,1177.43 3472.5,1177.5C 3460.46,1167.82 3448.46,1158.16 3436.5,1148.5C 3436.03,1147.09 3435.03,1146.43 3433.5,1146.5C 3417.52,1134.52 3401.86,1122.18 3386.5,1109.5C 3386.03,1108.09 3385.03,1107.43 3383.5,1107.5C 3378.43,1104.3 3373.76,1100.64 3369.5,1096.5C 3369.03,1095.09 3368.03,1094.43 3366.5,1094.5C 3365.83,1094.5 3365.5,1094.17 3365.5,1093.5C 3365.03,1092.09 3364.03,1091.43 3362.5,1091.5C 3361.83,1091.5 3361.5,1091.17 3361.5,1090.5C 3361.03,1089.09 3360.03,1088.43 3358.5,1088.5C 3357.83,1088.5 3357.5,1088.17 3357.5,1087.5C 3357.03,1086.09 3356.03,1085.43 3354.5,1085.5C 3350.1,1082.97 3346.1,1079.97 3342.5,1076.5C 3342.03,1075.09 3341.03,1074.43 3339.5,1074.5C 3337.77,1073.97 3336.44,1072.97 3335.5,1071.5C 3335.03,1070.09 3334.03,1069.43 3332.5,1069.5C 3330.77,1068.97 3329.44,1067.97 3328.5,1066.5C 3328.03,1065.09 3327.03,1064.43 3325.5,1064.5C 3323.77,1063.97 3322.44,1062.97 3321.5,1061.5C 3321.03,1060.09 3320.03,1059.43 3318.5,1059.5C 3318.03,1058.09 3317.03,1057.43 3315.5,1057.5C 3303.63,1050.07 3291.96,1042.4 3280.5,1034.5C 3280.03,1033.09 3279.03,1032.43 3277.5,1032.5C 3248.83,1015 3218.83,999.831 3187.5,987C 3161.09,979.157 3134.09,975.324 3106.5,975.5C 3057.86,978.312 3009.2,980.479 2960.5,982C 2917.25,986.725 2873.92,990.391 2830.5,993C 2734.72,1009.46 2654.55,1053.63 2590,1125.5C 2559.98,1158.94 2539.31,1197.6 2528,1241.5C 2526.23,1249.43 2524.9,1257.43 2524,1265.5C 2522.48,1287.14 2522.15,1308.81 2523,1330.5C 2523.43,1350.53 2531.6,1366.37 2547.5,1378C 2557.05,1383.11 2567.05,1387.11 2577.5,1390C 2655.34,1406.54 2733.01,1423.88 2810.5,1442C 2875.8,1457.91 2940.8,1474.91 3005.5,1493C 3040.67,1499.99 3076,1500.99 3111.5,1496C 3130,1493.57 3148.33,1490.23 3166.5,1486C 3283.25,1456.94 3399.42,1425.77 3515,1392.5C 3518.77,1400.33 3521.27,1408.66 3522.5,1417.5C 3521.83,1418.17 3521.17,1418.83 3520.5,1419.5C 3443.4,1439.52 3366.4,1460.02 3289.5,1481C 3207.52,1503.25 3124.52,1520.58 3040.5,1533C 3011.31,1535.82 2982.31,1534.49 2953.5,1529C 2935.69,1525.64 2918.02,1521.64 2900.5,1517C 2832.73,1496.64 2764.4,1478.31 2695.5,1462C 2614.92,1440.02 2534.25,1418.36 2453.5,1397C 2429.82,1390.66 2407.82,1380.82 2387.5,1367.5C 2387.03,1366.09 2386.03,1365.43 2384.5,1365.5C 2380.98,1364.24 2377.98,1362.24 2375.5,1359.5C 2375.03,1358.09 2374.03,1357.43 2372.5,1357.5C 2371.83,1357.5 2371.5,1357.17 2371.5,1356.5C 2371.03,1355.09 2370.03,1354.43 2368.5,1354.5C 2360.89,1349.22 2353.89,1343.22 2347.5,1336.5C 2347.03,1335.09 2346.03,1334.43 2344.5,1334.5C 2274.62,1265 2250.79,1182 2273,1085.5C 2274.67,1080.5 2276.33,1075.5 2278,1070.5C 2279.64,1067.04 2281.81,1064.04 2284.5,1061.5C 2286.75,1060.92 2288.42,1059.59 2289.5,1057.5C 2293.41,1053.87 2297.74,1050.7 2302.5,1048C 2313.06,1042.22 2323.73,1036.72 2334.5,1031.5C 2335.49,1031.33 2336.16,1031.66 2336.5,1032.5C 2295.67,1093.16 2288.17,1157.82 2314,1226.5C 2318.92,1237.34 2324.09,1248.01 2329.5,1258.5C 2329.43,1260.03 2330.09,1261.03 2331.5,1261.5C 2331.43,1263.03 2332.09,1264.03 2333.5,1264.5C 2333.43,1266.03 2334.09,1267.03 2335.5,1267.5C 2335.43,1269.03 2336.09,1270.03 2337.5,1270.5C 2337.43,1272.03 2338.09,1273.03 2339.5,1273.5C 2340.17,1273.5 2340.5,1273.83 2340.5,1274.5C 2340.43,1276.03 2341.09,1277.03 2342.5,1277.5C 2343.17,1277.5 2343.5,1277.83 2343.5,1278.5C 2343.43,1280.03 2344.09,1281.03 2345.5,1281.5C 2346.5,1281.83 2347.17,1282.5 2347.5,1283.5C 2347.74,1285.4 2348.74,1286.74 2350.5,1287.5C 2352.17,1288.5 2353.5,1289.83 2354.5,1291.5C 2355.08,1293.75 2356.41,1295.42 2358.5,1296.5C 2361.5,1299.17 2364.5,1301.83 2367.5,1304.5C 2367.83,1306.83 2369.17,1308.17 2371.5,1308.5C 2381.34,1317.34 2391.84,1325.34 2403,1332.5C 2420.68,1292.12 2441.18,1253.46 2464.5,1216.5C 2465.91,1216.03 2466.57,1215.03 2466.5,1213.5C 2467.91,1213.03 2468.57,1212.03 2468.5,1210.5C 2468.33,1209.51 2468.66,1208.84 2469.5,1208.5C 2470.91,1208.03 2471.57,1207.03 2471.5,1205.5C 2472.91,1205.03 2473.57,1204.03 2473.5,1202.5C 2474.91,1202.03 2475.57,1201.03 2475.5,1199.5C 2476.91,1199.03 2477.57,1198.03 2477.5,1196.5C 2478.91,1196.03 2479.57,1195.03 2479.5,1193.5C 2480.91,1193.03 2481.57,1192.03 2481.5,1190.5C 2482.03,1188.77 2483.03,1187.44 2484.5,1186.5C 2485.91,1186.03 2486.57,1185.03 2486.5,1183.5C 2487.91,1183.03 2488.57,1182.03 2488.5,1180.5C 2489.03,1178.77 2490.03,1177.44 2491.5,1176.5C 2492.91,1176.03 2493.57,1175.03 2493.5,1173.5C 2493.5,1172.83 2493.83,1172.5 2494.5,1172.5C 2495.91,1172.03 2496.57,1171.03 2496.5,1169.5C 2498.48,1166.19 2500.82,1163.19 2503.5,1160.5C 2504.91,1160.03 2505.57,1159.03 2505.5,1157.5C 2505.5,1156.83 2505.83,1156.5 2506.5,1156.5C 2508.26,1155.74 2509.26,1154.4 2509.5,1152.5C 2509.5,1151.83 2509.83,1151.5 2510.5,1151.5C 2512.26,1150.74 2513.26,1149.4 2513.5,1147.5C 2513.5,1146.83 2513.83,1146.5 2514.5,1146.5C 2516.26,1145.74 2517.26,1144.4 2517.5,1142.5C 2517.83,1141.5 2518.5,1140.83 2519.5,1140.5C 2521.26,1139.74 2522.26,1138.4 2522.5,1136.5C 2522.83,1135.5 2523.5,1134.83 2524.5,1134.5C 2526.59,1133.42 2527.92,1131.75 2528.5,1129.5C 2529.17,1128.17 2530.17,1127.17 2531.5,1126.5C 2533.26,1125.74 2534.26,1124.4 2534.5,1122.5C 2536.5,1119.83 2538.83,1117.5 2541.5,1115.5C 2543.59,1114.42 2544.92,1112.75 2545.5,1110.5C 2548.5,1109.5 2550.5,1107.5 2551.5,1104.5C 2554.17,1101.17 2557.17,1098.17 2560.5,1095.5C 2565.11,1092.56 2569.11,1088.9 2572.5,1084.5C 2573.5,1082.83 2574.83,1081.5 2576.5,1080.5C 2579.09,1079.58 2581.09,1077.91 2582.5,1075.5C 2583.17,1074.17 2584.17,1073.17 2585.5,1072.5C 2587.4,1072.26 2588.74,1071.26 2589.5,1069.5C 2589.83,1068.5 2590.5,1067.83 2591.5,1067.5C 2593.75,1066.92 2595.42,1065.59 2596.5,1063.5C 2596.5,1062.83 2596.83,1062.5 2597.5,1062.5C 2599.4,1062.26 2600.74,1061.26 2601.5,1059.5C 2601.5,1058.83 2601.83,1058.5 2602.5,1058.5C 2604.4,1058.26 2605.74,1057.26 2606.5,1055.5C 2606.5,1054.83 2606.83,1054.5 2607.5,1054.5C 2609.03,1054.57 2610.03,1053.91 2610.5,1052.5C 2613.19,1049.82 2616.19,1047.48 2619.5,1045.5C 2621.03,1045.57 2622.03,1044.91 2622.5,1043.5C 2623.44,1042.03 2624.77,1041.03 2626.5,1040.5C 2628.03,1040.57 2629.03,1039.91 2629.5,1038.5C 2633.15,1035.34 2637.15,1032.67 2641.5,1030.5C 2643.03,1030.57 2644.03,1029.91 2644.5,1028.5C 2650.83,1024 2657.49,1020 2664.5,1016.5C 2666.03,1016.57 2667.03,1015.91 2667.5,1014.5C 2669.18,1012.99 2671.18,1011.99 2673.5,1011.5C 2675.03,1011.57 2676.03,1010.91 2676.5,1009.5C 2749.54,970.737 2827.54,950.071 2910.5,947.5C 2923.83,947.5 2937.17,947.5 2950.5,947.5C 2954.23,947.823 2957.89,947.489 2961.5,946.5C 2951.34,945.177 2941.34,945.177 2931.5,946.5C 2918.84,946.04 2906.17,945.707 2893.5,945.5C 2830.49,941.272 2767.49,936.772 2704.5,932C 2651.99,928.723 2599.99,932.39 2548.5,943C 2519.05,949.762 2490.71,959.595 2463.5,972.5C 2462.17,972.5 2461.5,971.833 2461.5,970.5C 2467.82,962.183 2474.49,954.183 2481.5,946.5C 2483.26,945.738 2484.26,944.404 2484.5,942.5C 2488.27,937.278 2492.27,932.278 2496.5,927.5C 2497.04,927.44 2497.38,927.107 2497.5,926.5C 2496.68,925.614 2495.68,925.281 2494.5,925.5C 2358.47,903.717 2222.47,881.717 2086.5,859.5C 2086.51,856.455 2086.84,853.455 2087.5,850.5C 2369.7,878.323 2652.36,900.156 2935.5,916C 3018.8,921.161 3100.47,935.495 3180.5,959C 3224.95,972.727 3267.61,990.56 3308.5,1012.5 Z M 5351.5,1120.5 C 5352.26,1122.26 5353.6,1123.26 5355.5,1123.5C 5356.17,1124.83 5357.17,1125.83 5358.5,1126.5C 5361.5,1130.17 5364.83,1133.5 5368.5,1136.5C 5370.17,1138.5 5371.83,1140.5 5373.5,1142.5C 5374.83,1143.5 5374.83,1144.5 5373.5,1145.5C 5127.69,1234.44 4882.02,1323.77 4636.5,1413.5C 4635.22,1413.22 4634.22,1412.55 4633.5,1411.5C 4630.33,1387.46 4626.83,1363.46 4623,1339.5C 4617.83,1338.14 4612.66,1338.3 4607.5,1340C 4605.01,1344.47 4602.68,1348.97 4600.5,1353.5C 4599.09,1353.97 4598.43,1354.97 4598.5,1356.5C 4597.09,1356.97 4596.43,1357.97 4596.5,1359.5C 4594.27,1362.29 4592.27,1365.29 4590.5,1368.5C 4589.09,1368.97 4588.43,1369.97 4588.5,1371.5C 4587.03,1372.44 4586.03,1373.77 4585.5,1375.5C 4583.74,1376.26 4582.74,1377.6 4582.5,1379.5C 4581.83,1379.5 4581.5,1379.83 4581.5,1380.5C 4580.09,1380.97 4579.43,1381.97 4579.5,1383.5C 4578.5,1383.83 4577.83,1384.5 4577.5,1385.5C 4575.74,1386.26 4574.74,1387.6 4574.5,1389.5C 4572.5,1390.83 4570.83,1392.5 4569.5,1394.5C 4567.09,1395.91 4565.42,1397.91 4564.5,1400.5C 4561.83,1402.5 4559.5,1404.83 4557.5,1407.5C 4554.24,1409.09 4551.57,1411.43 4549.5,1414.5C 4548.5,1414.83 4547.83,1415.5 4547.5,1416.5C 4545.25,1417.08 4543.58,1418.41 4542.5,1420.5C 4541.83,1420.5 4541.5,1420.83 4541.5,1421.5C 4539.6,1421.74 4538.26,1422.74 4537.5,1424.5C 4526.64,1432.09 4515.64,1439.43 4504.5,1446.5C 4502.97,1446.43 4501.97,1447.09 4501.5,1448.5C 4485.88,1456.48 4469.88,1463.64 4453.5,1470C 4383.1,1490.69 4313.77,1514.35 4245.5,1541C 4213.76,1552.69 4181.42,1562.36 4148.5,1570C 4127.68,1573.77 4107.02,1573.1 4086.5,1568C 4075.1,1563.47 4064.1,1558.13 4053.5,1552C 3914.67,1473.3 3777,1392.8 3640.5,1310.5C 3685.37,1291.71 3730.37,1273.21 3775.5,1255C 3937.06,1196.39 4098.73,1138.05 4260.5,1080C 4334.56,1052.31 4408.23,1023.65 4481.5,994C 4546.77,971.966 4613.77,963.633 4682.5,969C 4721.18,971.835 4759.51,977.169 4797.5,985C 4867.45,998.723 4937.11,1013.72 5006.5,1030C 5115.33,1056.04 5224,1082.71 5332.5,1110C 5339.18,1113 5345.52,1116.5 5351.5,1120.5 Z"/></g>
<g><path style="opacity:0.922" fill="#8d8d8c" d="M 1235.5,876.5 C 1236.91,876.973 1237.57,877.973 1237.5,879.5C 1236.09,879.027 1235.43,878.027 1235.5,876.5 Z"/></g>
<g><path style="opacity:0.922" fill="#808080" d="M 53.5,889.5 C 53.0269,890.906 52.0269,891.573 50.5,891.5C 50.9731,890.094 51.9731,889.427 53.5,889.5 Z"/></g>
<g><path style="opacity:0.929" fill="#7c7c7b" d="M 41.5,899.5 C 39.8333,901.833 37.8333,903.833 35.5,905.5C 36.5,902.5 38.5,900.5 41.5,899.5 Z"/></g>
<g><path style="opacity:0.941" fill="#9c9c9b" d="M 25.5,917.5 C 25.573,919.027 24.9063,920.027 23.5,920.5C 23.427,918.973 24.0937,917.973 25.5,917.5 Z"/></g>
<g><path style="opacity:1" fill="#cacaca" d="M 2494.5,925.5 C 2495.68,925.281 2496.68,925.614 2497.5,926.5C 2497.38,927.107 2497.04,927.44 2496.5,927.5C 2495.83,926.833 2495.17,926.167 2494.5,925.5 Z"/></g>
<g><path style="opacity:1" fill="#878686" d="M 1220.5,929.5 C 1221.04,929.56 1221.38,929.893 1221.5,930.5C 1219.95,931.452 1218.29,931.785 1216.5,931.5C 1217.83,930.833 1219.17,930.167 1220.5,929.5 Z"/></g>
<g><path style="opacity:0.941" fill="#adadad" d="M 126.5,934.5 C 125.1,935.1 124.1,936.1 123.5,937.5C 122.596,936.791 122.263,935.791 122.5,934.5C 123.833,934.5 125.167,934.5 126.5,934.5 Z"/></g>
<g><path style="opacity:1" fill="#cbcbcb" d="M 12.5,942.5 C 12.8333,943.167 13.1667,943.833 13.5,944.5C 11.5759,944.289 11.2426,943.623 12.5,942.5 Z"/></g>
<g><path style="opacity:0.969" fill="#747474" d="M 2484.5,942.5 C 2484.26,944.404 2483.26,945.738 2481.5,946.5C 2481.74,944.596 2482.74,943.262 2484.5,942.5 Z"/></g>
<g><path style="opacity:1" fill="#636262" d="M 2931.5,946.5 C 2941.34,945.177 2951.34,945.177 2961.5,946.5C 2957.89,947.489 2954.23,947.823 2950.5,947.5C 2944.36,946.51 2938.02,946.177 2931.5,946.5 Z"/></g>
<g><path style="opacity:0.878" fill="#a9a8a8" d="M 2893.5,945.5 C 2906.17,945.707 2918.84,946.04 2931.5,946.5C 2938.02,946.177 2944.36,946.51 2950.5,947.5C 2937.17,947.5 2923.83,947.5 2910.5,947.5C 2904.83,946.833 2899.17,946.167 2893.5,945.5 Z"/></g>
<g><path style="opacity:1" fill="#868585" d="M 2461.5,970.5 C 2461.5,971.833 2462.17,972.5 2463.5,972.5C 2456.74,976.796 2456.07,976.129 2461.5,970.5 Z"/></g>
<g><path style="opacity:0.922" fill="#8c8b8b" d="M 1244.5,972.5 C 1245.91,972.973 1246.57,973.973 1246.5,975.5C 1245.09,975.027 1244.43,974.027 1244.5,972.5 Z"/></g>
<g><path style="opacity:0.937" fill="#a8a8a7" d="M 149.5,987.5 C 150.885,988.302 150.718,988.969 149,989.5C 148.235,989.43 147.735,989.097 147.5,988.5C 148.492,988.672 149.158,988.338 149.5,987.5 Z"/></g>
<g><path style="opacity:0.965" fill="#80807f" d="M 169.5,995.5 C 167.007,995.131 166.34,995.797 167.5,997.5C 163.855,996.013 160.188,994.513 156.5,993C 161.09,992.885 165.423,993.718 169.5,995.5 Z"/></g>
<g><path style="opacity:1" fill="#c4c4c3" d="M 951.5,997.5 C 951.167,998.167 950.833,998.833 950.5,999.5C 947.814,998.012 948.147,997.345 951.5,997.5 Z"/></g>
<g><path style="opacity:1" fill="#868685" d="M 2676.5,1009.5 C 2676.03,1010.91 2675.03,1011.57 2673.5,1011.5C 2673.97,1010.09 2674.97,1009.43 2676.5,1009.5 Z"/></g>
<g><path style="opacity:0.965" fill="#7c7c7b" d="M 3308.5,1012.5 C 3309.71,1012.93 3310.71,1013.6 3311.5,1014.5C 3309.82,1014.71 3308.82,1014.05 3308.5,1012.5 Z"/></g>
<g><path style="opacity:1" fill="#868685" d="M 2667.5,1014.5 C 2667.03,1015.91 2666.03,1016.57 2664.5,1016.5C 2664.97,1015.09 2665.97,1014.43 2667.5,1014.5 Z"/></g>
<g><path style="opacity:0.965" fill="#7c7c7b" d="M 1319.5,1022.5 C 1320.71,1022.93 1321.71,1023.6 1322.5,1024.5C 1320.82,1024.71 1319.82,1024.05 1319.5,1022.5 Z"/></g>
<g><path style="opacity:0.965" fill="#edeeed" d="M 2339.5,1027.5 C 2340.83,1028.17 2340.83,1028.17 2339.5,1027.5 Z"/></g>
<g><path style="opacity:0.965" fill="#7d7d7c" d="M 2339.5,1028.5 C 2339.26,1030.4 2338.26,1031.74 2336.5,1032.5C 2336.16,1031.66 2335.49,1031.33 2334.5,1031.5C 2335.9,1030.11 2337.57,1029.11 2339.5,1028.5 Z"/></g>
<g><path style="opacity:1" fill="#858584" d="M 2644.5,1028.5 C 2644.03,1029.91 2643.03,1030.57 2641.5,1030.5C 2641.97,1029.09 2642.97,1028.43 2644.5,1028.5 Z"/></g>
<g><path style="opacity:0.922" fill="#8a8a8a" d="M 3277.5,1032.5 C 3279.03,1032.43 3280.03,1033.09 3280.5,1034.5C 3278.97,1034.57 3277.97,1033.91 3277.5,1032.5 Z"/></g>
<g><path style="opacity:1" fill="#939292" d="M 2629.5,1038.5 C 2629.03,1039.91 2628.03,1040.57 2626.5,1040.5C 2626.97,1039.09 2627.97,1038.43 2629.5,1038.5 Z"/></g>
<g><path style="opacity:1" fill="#878786" d="M 2622.5,1043.5 C 2622.03,1044.91 2621.03,1045.57 2619.5,1045.5C 2619.97,1044.09 2620.97,1043.43 2622.5,1043.5 Z"/></g>
<g><path style="opacity:0.922" fill="#7d7c7c" d="M 973.5,1048.5 C 975.027,1048.43 976.027,1049.09 976.5,1050.5C 974.973,1050.57 973.973,1049.91 973.5,1048.5 Z"/></g>
<g><path style="opacity:0.965" fill="#7c7c7b" d="M 1373.5,1051.5 C 1374.71,1051.93 1375.71,1052.6 1376.5,1053.5C 1374.82,1053.71 1373.82,1053.05 1373.5,1051.5 Z"/></g>
<g><path style="opacity:1" fill="#7f7f7f" d="M 2610.5,1052.5 C 2610.03,1053.91 2609.03,1054.57 2607.5,1054.5C 2607.97,1053.09 2608.97,1052.43 2610.5,1052.5 Z"/></g>
<g><path style="opacity:1" fill="#828281" d="M 2606.5,1055.5 C 2605.74,1057.26 2604.4,1058.26 2602.5,1058.5C 2603.26,1056.74 2604.6,1055.74 2606.5,1055.5 Z"/></g>
<g><path style="opacity:0.922" fill="#8d8d8c" d="M 3315.5,1057.5 C 3317.03,1057.43 3318.03,1058.09 3318.5,1059.5C 3316.97,1059.57 3315.97,1058.91 3315.5,1057.5 Z"/></g>
<g><path style="opacity:0.965" fill="#5f5f5e" d="M 2289.5,1057.5 C 2288.42,1059.59 2286.75,1060.92 2284.5,1061.5C 2285.58,1059.41 2287.25,1058.08 2289.5,1057.5 Z"/></g>
<g><path style="opacity:1" fill="#7e7e7d" d="M 2601.5,1059.5 C 2600.74,1061.26 2599.4,1062.26 2597.5,1062.5C 2598.26,1060.74 2599.6,1059.74 2601.5,1059.5 Z"/></g>
<g><path style="opacity:0.922" fill="#777777" d="M 3318.5,1059.5 C 3320.03,1059.43 3321.03,1060.09 3321.5,1061.5C 3319.97,1061.57 3318.97,1060.91 3318.5,1059.5 Z"/></g>
<g><path style="opacity:0.922" fill="#949393" d="M 3325.5,1064.5 C 3327.03,1064.43 3328.03,1065.09 3328.5,1066.5C 3326.97,1066.57 3325.97,1065.91 3325.5,1064.5 Z"/></g>
<g><path style="opacity:1" fill="#696968" d="M 2596.5,1063.5 C 2595.42,1065.59 2593.75,1066.92 2591.5,1067.5C 2592.58,1065.41 2594.25,1064.08 2596.5,1063.5 Z"/></g>
<g><path style="opacity:0.922" fill="#949393" d="M 998.5,1068.5 C 1000.03,1068.43 1001.03,1069.09 1001.5,1070.5C 999.973,1070.57 998.973,1069.91 998.5,1068.5 Z"/></g>
<g><path style="opacity:1" fill="#7a7979" d="M 2589.5,1069.5 C 2588.74,1071.26 2587.4,1072.26 2585.5,1072.5C 2586.26,1070.74 2587.6,1069.74 2589.5,1069.5 Z"/></g>
<g><path style="opacity:0.922" fill="#949393" d="M 3332.5,1069.5 C 3334.03,1069.43 3335.03,1070.09 3335.5,1071.5C 3333.97,1071.57 3332.97,1070.91 3332.5,1069.5 Z"/></g>
<g><path style="opacity:0.922" fill="#8c8b8b" d="M 1001.5,1070.5 C 1003.03,1070.43 1004.03,1071.09 1004.5,1072.5C 1002.97,1072.57 1001.97,1071.91 1001.5,1070.5 Z"/></g>
<g><path style="opacity:0.941" fill="#949493" d="M 1004.5,1072.5 C 1006.03,1072.43 1007.03,1073.09 1007.5,1074.5C 1005.97,1074.57 1004.97,1073.91 1004.5,1072.5 Z"/></g>
<g><path style="opacity:0.922" fill="#8a8a8a" d="M 1352.5,1072.5 C 1354.03,1072.43 1355.03,1073.09 1355.5,1074.5C 1353.97,1074.57 1352.97,1073.91 1352.5,1072.5 Z"/></g>
<g><path style="opacity:0.929" fill="#868686" d="M 3339.5,1074.5 C 3341.03,1074.43 3342.03,1075.09 3342.5,1076.5C 3340.97,1076.57 3339.97,1075.91 3339.5,1074.5 Z"/></g>
<g><path style="opacity:1" fill="#676767" d="M 2582.5,1075.5 C 2581.09,1077.91 2579.09,1079.58 2576.5,1080.5C 2577.91,1078.09 2579.91,1076.42 2582.5,1075.5 Z"/></g>
<g><path style="opacity:0.922" fill="#7e7e7d" d="M 3354.5,1085.5 C 3356.03,1085.43 3357.03,1086.09 3357.5,1087.5C 3355.97,1087.57 3354.97,1086.91 3354.5,1085.5 Z"/></g>
<g><path style="opacity:0.922" fill="#7e7e7d" d="M 3358.5,1088.5 C 3360.03,1088.43 3361.03,1089.09 3361.5,1090.5C 3359.97,1090.57 3358.97,1089.91 3358.5,1088.5 Z"/></g>
<g><path style="opacity:1" fill="#6a6a69" d="M 2572.5,1084.5 C 2569.11,1088.9 2565.11,1092.56 2560.5,1095.5C 2563.89,1091.1 2567.89,1087.44 2572.5,1084.5 Z"/></g>
<g><path style="opacity:0.922" fill="#7e7e7d" d="M 3362.5,1091.5 C 3364.03,1091.43 3365.03,1092.09 3365.5,1093.5C 3363.97,1093.57 3362.97,1092.91 3362.5,1091.5 Z"/></g>
<g><path style="opacity:0.922" fill="#7e7e7d" d="M 3366.5,1094.5 C 3368.03,1094.43 3369.03,1095.09 3369.5,1096.5C 3367.97,1096.57 3366.97,1095.91 3366.5,1094.5 Z"/></g>
<g><path style="opacity:0.922" fill="#8a8a8a" d="M 1390.5,1095.5 C 1392.03,1095.43 1393.03,1096.09 1393.5,1097.5C 1391.97,1097.57 1390.97,1096.91 1390.5,1095.5 Z"/></g>
<g><path style="opacity:0.965" fill="#7c7c7b" d="M 1471.5,1103.5 C 1472.71,1103.93 1473.71,1104.6 1474.5,1105.5C 1472.82,1105.71 1471.82,1105.05 1471.5,1103.5 Z"/></g>
<g><path style="opacity:0.941" fill="#8a8989" d="M 1076.5,1107.5 C 1077.83,1107.83 1079.17,1108.17 1080.5,1108.5C 1078.87,1109.85 1077.54,1109.52 1076.5,1107.5 Z"/></g>
<g><path style="opacity:1" fill="#616160" d="M 2551.5,1104.5 C 2550.5,1107.5 2548.5,1109.5 2545.5,1110.5C 2547.17,1108.17 2549.17,1106.17 2551.5,1104.5 Z"/></g>
<g><path style="opacity:0.922" fill="#7e7e7d" d="M 3383.5,1107.5 C 3385.03,1107.43 3386.03,1108.09 3386.5,1109.5C 3384.97,1109.57 3383.97,1108.91 3383.5,1107.5 Z"/></g>
<g><path style="opacity:1" fill="#8b8a8a" d="M 2545.5,1110.5 C 2544.92,1112.75 2543.59,1114.42 2541.5,1115.5C 2542.08,1113.25 2543.41,1111.58 2545.5,1110.5 Z"/></g>
<g><path style="opacity:0.941" fill="#949493" d="M 1421.5,1114.5 C 1423.03,1114.43 1424.03,1115.09 1424.5,1116.5C 1422.97,1116.57 1421.97,1115.91 1421.5,1114.5 Z"/></g>
<g><path style="opacity:1" fill="#80807f" d="M 5351.5,1120.5 C 5353.4,1120.74 5354.74,1121.74 5355.5,1123.5C 5353.6,1123.26 5352.26,1122.26 5351.5,1120.5 Z"/></g>
<g><path style="opacity:1" fill="#898888" d="M 2534.5,1122.5 C 2534.26,1124.4 2533.26,1125.74 2531.5,1126.5C 2531.74,1124.6 2532.74,1123.26 2534.5,1122.5 Z"/></g>
<g><path style="opacity:1" fill="#a0a0a0" d="M 5358.5,1126.5 C 5362.83,1128.83 5366.17,1132.17 5368.5,1136.5C 5364.83,1133.5 5361.5,1130.17 5358.5,1126.5 Z"/></g>
<g><path style="opacity:0.941" fill="#949493" d="M 1447.5,1130.5 C 1449.03,1130.43 1450.03,1131.09 1450.5,1132.5C 1448.97,1132.57 1447.97,1131.91 1447.5,1130.5 Z"/></g>
<g><path style="opacity:1" fill="#8b8b8a" d="M 2528.5,1129.5 C 2527.92,1131.75 2526.59,1133.42 2524.5,1134.5C 2525.08,1132.25 2526.41,1130.58 2528.5,1129.5 Z"/></g>
<g><path style="opacity:1" fill="#7b7a7a" d="M 2522.5,1136.5 C 2522.26,1138.4 2521.26,1139.74 2519.5,1140.5C 2519.74,1138.6 2520.74,1137.26 2522.5,1136.5 Z"/></g>
<g><path style="opacity:0.965" fill="#7c7c7b" d="M 3471.5,1139.5 C 3473.59,1140.58 3474.92,1142.25 3475.5,1144.5C 3473.41,1143.42 3472.08,1141.75 3471.5,1139.5 Z"/></g>
<g><path style="opacity:1" fill="#7f7f7e" d="M 2517.5,1142.5 C 2517.26,1144.4 2516.26,1145.74 2514.5,1146.5C 2514.74,1144.6 2515.74,1143.26 2517.5,1142.5 Z"/></g>
<g><path style="opacity:0.922" fill="#b8b7b7" d="M 5373.5,1142.5 C 5376.17,1143.5 5376.17,1144.5 5373.5,1145.5C 5374.83,1144.5 5374.83,1143.5 5373.5,1142.5 Z"/></g>
<g><path style="opacity:0.941" fill="#757574" d="M 3433.5,1146.5 C 3435.03,1146.43 3436.03,1147.09 3436.5,1148.5C 3434.97,1148.57 3433.97,1147.91 3433.5,1146.5 Z"/></g>
<g><path style="opacity:0.922" fill="#7d7c7c" d="M 5416.5,1144.5 C 5417.91,1144.97 5418.57,1145.97 5418.5,1147.5C 5417.09,1147.03 5416.43,1146.03 5416.5,1144.5 Z"/></g>
<g><path style="opacity:1" fill="#7c7c7b" d="M 2513.5,1147.5 C 2513.26,1149.4 2512.26,1150.74 2510.5,1151.5C 2510.74,1149.6 2511.74,1148.26 2513.5,1147.5 Z"/></g>
<g><path style="opacity:1" fill="#7f7e7e" d="M 2509.5,1152.5 C 2509.26,1154.4 2508.26,1155.74 2506.5,1156.5C 2506.74,1154.6 2507.74,1153.26 2509.5,1152.5 Z"/></g>
<g><path style="opacity:1" fill="#80807f" d="M 2505.5,1157.5 C 2505.57,1159.03 2504.91,1160.03 2503.5,1160.5C 2503.43,1158.97 2504.09,1157.97 2505.5,1157.5 Z"/></g>
<g><path style="opacity:0.929" fill="#8e8e8e" d="M 3495.5,1166.5 C 3496.91,1166.97 3497.57,1167.97 3497.5,1169.5C 3496.09,1169.03 3495.43,1168.03 3495.5,1166.5 Z"/></g>
<g><path style="opacity:1" fill="#7c7c7c" d="M 2496.5,1169.5 C 2496.57,1171.03 2495.91,1172.03 2494.5,1172.5C 2494.43,1170.97 2495.09,1169.97 2496.5,1169.5 Z"/></g>
<g><path style="opacity:0.961" fill="#909090" d="M 2493.5,1173.5 C 2493.57,1175.03 2492.91,1176.03 2491.5,1176.5C 2491.43,1174.97 2492.09,1173.97 2493.5,1173.5 Z"/></g>
<g><path style="opacity:0.929" fill="#8e8e8e" d="M 3472.5,1177.5 C 3474.03,1177.43 3475.03,1178.09 3475.5,1179.5C 3473.97,1179.57 3472.97,1178.91 3472.5,1177.5 Z"/></g>
<g><path style="opacity:0.929" fill="#8a8a8a" d="M 3506.5,1179.5 C 3507.91,1179.97 3508.57,1180.97 3508.5,1182.5C 3507.09,1182.03 3506.43,1181.03 3506.5,1179.5 Z"/></g>
<g><path style="opacity:0.965" fill="#797978" d="M 3477.5,1181.5 C 3479.75,1182.08 3481.42,1183.41 3482.5,1185.5C 3480.25,1184.92 3478.58,1183.59 3477.5,1181.5 Z"/></g>
<g><path style="opacity:0.961" fill="#878787" d="M 2488.5,1180.5 C 2488.57,1182.03 2487.91,1183.03 2486.5,1183.5C 2486.43,1181.97 2487.09,1180.97 2488.5,1180.5 Z"/></g>
<g><path style="opacity:0.941" fill="#949493" d="M 1532.5,1183.5 C 1534.03,1183.43 1535.03,1184.09 1535.5,1185.5C 1533.97,1185.57 1532.97,1184.91 1532.5,1183.5 Z"/></g>
<g><path style="opacity:1" fill="#7a7979" d="M 2486.5,1183.5 C 2486.57,1185.03 2485.91,1186.03 2484.5,1186.5C 2484.43,1184.97 2485.09,1183.97 2486.5,1183.5 Z"/></g>
<g><path style="opacity:0.922" fill="#8a8a8a" d="M 1540.5,1188.5 C 1542.03,1188.43 1543.03,1189.09 1543.5,1190.5C 1541.97,1190.57 1540.97,1189.91 1540.5,1188.5 Z"/></g>
<g><path style="opacity:0.941" fill="#858585" d="M 3486.5,1189.5 C 3488.5,1189.5 3489.5,1190.5 3489.5,1192.5C 3488.17,1191.83 3487.17,1190.83 3486.5,1189.5 Z"/></g>
<g><path style="opacity:0.969" fill="#9d9d9d" d="M 2481.5,1190.5 C 2481.57,1192.03 2480.91,1193.03 2479.5,1193.5C 2479.43,1191.97 2480.09,1190.97 2481.5,1190.5 Z"/></g>
<g><path style="opacity:0.961" fill="#878787" d="M 2479.5,1193.5 C 2479.57,1195.03 2478.91,1196.03 2477.5,1196.5C 2477.43,1194.97 2478.09,1193.97 2479.5,1193.5 Z"/></g>
<g><path style="opacity:0.965" fill="#7c7c7b" d="M 1640.5,1195.5 C 1641.71,1195.93 1642.71,1196.6 1643.5,1197.5C 1641.82,1197.71 1640.82,1197.05 1640.5,1195.5 Z"/></g>
<g><path style="opacity:0.961" fill="#868685" d="M 2477.5,1196.5 C 2477.57,1198.03 2476.91,1199.03 2475.5,1199.5C 2475.43,1197.97 2476.09,1196.97 2477.5,1196.5 Z"/></g>
<g><path style="opacity:0.929" fill="#8e8e8e" d="M 3522.5,1198.5 C 3523.91,1198.97 3524.57,1199.97 3524.5,1201.5C 3523.09,1201.03 3522.43,1200.03 3522.5,1198.5 Z"/></g>
<g><path style="opacity:0.922" fill="#8c8b8b" d="M 1559.5,1200.5 C 1561.03,1200.43 1562.03,1201.09 1562.5,1202.5C 1560.97,1202.57 1559.97,1201.91 1559.5,1200.5 Z"/></g>
<g><path style="opacity:0.961" fill="#868685" d="M 2475.5,1199.5 C 2475.57,1201.03 2474.91,1202.03 2473.5,1202.5C 2473.43,1200.97 2474.09,1199.97 2475.5,1199.5 Z"/></g>
<g><path style="opacity:1" fill="#dadada" d="M 1279.5,1204.5 C 1278.83,1204.83 1278.17,1205.17 1277.5,1205.5C 1277.71,1203.58 1278.38,1203.24 1279.5,1204.5 Z"/></g>
<g><path style="opacity:0.929" fill="#878786" d="M 3501.5,1203.5 C 3503.03,1203.43 3504.03,1204.09 3504.5,1205.5C 3502.97,1205.57 3501.97,1204.91 3501.5,1203.5 Z"/></g>
<g><path style="opacity:0.969" fill="#9d9d9d" d="M 2473.5,1202.5 C 2473.57,1204.03 2472.91,1205.03 2471.5,1205.5C 2471.43,1203.97 2472.09,1202.97 2473.5,1202.5 Z"/></g>
<g><path style="opacity:1" fill="#0e0e0e" d="M 1279.5,1204.5 C 1283.47,1206.49 1287.47,1208.49 1291.5,1210.5C 1291.82,1212.05 1292.82,1212.71 1294.5,1212.5C 1303.66,1216.91 1312.66,1221.58 1321.5,1226.5C 1321.82,1228.05 1322.82,1228.71 1324.5,1228.5C 1343.66,1238.25 1362.66,1248.25 1381.5,1258.5C 1381.82,1260.05 1382.82,1260.71 1384.5,1260.5C 1392.32,1264.24 1399.99,1268.24 1407.5,1272.5C 1407.82,1274.05 1408.82,1274.71 1410.5,1274.5C 1420.5,1279.83 1430.5,1285.17 1440.5,1290.5C 1440.82,1292.05 1441.82,1292.71 1443.5,1292.5C 1458.17,1300.5 1472.83,1308.5 1487.5,1316.5C 1487.82,1318.05 1488.82,1318.71 1490.5,1318.5C 1512.5,1330.5 1534.5,1342.5 1556.5,1354.5C 1556.82,1356.05 1557.82,1356.71 1559.5,1356.5C 1568.17,1361.17 1576.83,1365.83 1585.5,1370.5C 1585.82,1372.05 1586.82,1372.71 1588.5,1372.5C 1590.5,1373.5 1592.5,1374.5 1594.5,1375.5C 1594.82,1377.05 1595.82,1377.71 1597.5,1377.5C 1602.66,1379.91 1607.66,1382.58 1612.5,1385.5C 1612.82,1387.05 1613.82,1387.71 1615.5,1387.5C 1719.97,1444.55 1821.31,1506.39 1919.5,1573C 1958.57,1599.86 1997.57,1626.69 2036.5,1653.5C 2036.43,1655.03 2037.09,1656.03 2038.5,1656.5C 2043.45,1662.73 2047.12,1669.73 2049.5,1677.5C 2049.5,1678.83 2048.83,1679.5 2047.5,1679.5C 1858.66,1566.92 1670.33,1453.58 1482.5,1339.5C 1482.03,1338.09 1481.03,1337.43 1479.5,1337.5C 1417.99,1301.58 1356.99,1264.92 1296.5,1227.5C 1296.03,1226.09 1295.03,1225.43 1293.5,1225.5C 1286.91,1222.09 1280.41,1218.42 1274,1214.5C 1274.04,1211.08 1275.21,1208.08 1277.5,1205.5C 1278.17,1205.17 1278.83,1204.83 1279.5,1204.5 Z"/></g>
<g><path style="opacity:0.929" fill="#888888" d="M 3527.5,1204.5 C 3528.91,1204.97 3529.57,1205.97 3529.5,1207.5C 3528.09,1207.03 3527.43,1206.03 3527.5,1204.5 Z"/></g>
<g><path style="opacity:0.941" fill="#a5a5a4" d="M 2471.5,1205.5 C 2471.57,1207.03 2470.91,1208.03 2469.5,1208.5C 2469.43,1206.97 2470.09,1205.97 2471.5,1205.5 Z"/></g>
<g><path style="opacity:0.965" fill="#7c7c7b" d="M 1291.5,1210.5 C 1292.71,1210.93 1293.71,1211.6 1294.5,1212.5C 1292.82,1212.71 1291.82,1212.05 1291.5,1210.5 Z"/></g>
<g><path style="opacity:1" fill="#787777" d="M 2468.5,1210.5 C 2468.57,1212.03 2467.91,1213.03 2466.5,1213.5C 2466.43,1211.97 2467.09,1210.97 2468.5,1210.5 Z"/></g>
<g><path style="opacity:0.922" fill="#8c8b8b" d="M 1578.5,1212.5 C 1580.03,1212.43 1581.03,1213.09 1581.5,1214.5C 1579.97,1214.57 1578.97,1213.91 1578.5,1212.5 Z"/></g>
<g><path style="opacity:0.961" fill="#858484" d="M 2466.5,1213.5 C 2466.57,1215.03 2465.91,1216.03 2464.5,1216.5C 2464.43,1214.97 2465.09,1213.97 2466.5,1213.5 Z"/></g>
<g><path style="opacity:0.922" fill="#8a8a8a" d="M 1597.5,1224.5 C 1599.03,1224.43 1600.03,1225.09 1600.5,1226.5C 1598.97,1226.57 1597.97,1225.91 1597.5,1224.5 Z"/></g>
<g><path style="opacity:0.922" fill="#8a8a8a" d="M 1293.5,1225.5 C 1295.03,1225.43 1296.03,1226.09 1296.5,1227.5C 1294.97,1227.57 1293.97,1226.91 1293.5,1225.5 Z"/></g>
<g><path style="opacity:0.965" fill="#7c7c7b" d="M 1321.5,1226.5 C 1322.71,1226.93 1323.71,1227.6 1324.5,1228.5C 1322.82,1228.71 1321.82,1228.05 1321.5,1226.5 Z"/></g>
<g><path style="opacity:0.922" fill="#8c8b8b" d="M 1608.5,1231.5 C 1610.03,1231.43 1611.03,1232.09 1611.5,1233.5C 1609.97,1233.57 1608.97,1232.91 1608.5,1231.5 Z"/></g>
<g><path style="opacity:0.941" fill="#949493" d="M 1619.5,1238.5 C 1621.03,1238.43 1622.03,1239.09 1622.5,1240.5C 1620.97,1240.57 1619.97,1239.91 1619.5,1238.5 Z"/></g>
<g><path style="opacity:0.941" fill="#949493" d="M 1630.5,1245.5 C 1632.03,1245.43 1633.03,1246.09 1633.5,1247.5C 1631.97,1247.57 1630.97,1246.91 1630.5,1245.5 Z"/></g>
<g><path style="opacity:0.941" fill="#949493" d="M 1641.5,1252.5 C 1643.03,1252.43 1644.03,1253.09 1644.5,1254.5C 1642.97,1254.57 1641.97,1253.91 1641.5,1252.5 Z"/></g>
<g><path style="opacity:0.965" fill="#7c7c7b" d="M 1381.5,1258.5 C 1382.71,1258.93 1383.71,1259.6 1384.5,1260.5C 1382.82,1260.71 1381.82,1260.05 1381.5,1258.5 Z"/></g>
<g><path style="opacity:0.961" fill="#797979" d="M 3584.5,1258.5 C 3585.71,1258.93 3586.71,1259.6 3587.5,1260.5C 3585.82,1260.71 3584.82,1260.05 3584.5,1258.5 Z"/></g>
<g><path style="opacity:0.941" fill="#949493" d="M 1652.5,1259.5 C 1654.03,1259.43 1655.03,1260.09 1655.5,1261.5C 1653.97,1261.57 1652.97,1260.91 1652.5,1259.5 Z"/></g>
<g><path style="opacity:0.961" fill="#828181" d="M 2329.5,1258.5 C 2330.91,1258.97 2331.57,1259.97 2331.5,1261.5C 2330.09,1261.03 2329.43,1260.03 2329.5,1258.5 Z"/></g>
<g><path style="opacity:0.969" fill="#9c9c9b" d="M 2331.5,1261.5 C 2332.91,1261.97 2333.57,1262.97 2333.5,1264.5C 2332.09,1264.03 2331.43,1263.03 2331.5,1261.5 Z"/></g>
<g><path style="opacity:0.969" fill="#9d9d9d" d="M 2333.5,1264.5 C 2334.91,1264.97 2335.57,1265.97 2335.5,1267.5C 2334.09,1267.03 2333.43,1266.03 2333.5,1264.5 Z"/></g>
<g><path style="opacity:0.941" fill="#949493" d="M 1663.5,1266.5 C 1665.03,1266.43 1666.03,1267.09 1666.5,1268.5C 1664.97,1268.57 1663.97,1267.91 1663.5,1266.5 Z"/></g>
<g><path style="opacity:0.965" fill="#989797" d="M 2335.5,1267.5 C 2336.91,1267.97 2337.57,1268.97 2337.5,1270.5C 2336.09,1270.03 2335.43,1269.03 2335.5,1267.5 Z"/></g>
<g><path style="opacity:1" fill="#7e7d7d" d="M 2337.5,1270.5 C 2338.91,1270.97 2339.57,1271.97 2339.5,1273.5C 2338.09,1273.03 2337.43,1272.03 2337.5,1270.5 Z"/></g>
<g><path style="opacity:0.965" fill="#7c7c7b" d="M 1407.5,1272.5 C 1408.71,1272.93 1409.71,1273.6 1410.5,1274.5C 1408.82,1274.71 1407.82,1274.05 1407.5,1272.5 Z"/></g>
<g><path style="opacity:0.922" fill="#8c8b8b" d="M 1674.5,1273.5 C 1676.03,1273.43 1677.03,1274.09 1677.5,1275.5C 1675.97,1275.57 1674.97,1274.91 1674.5,1273.5 Z"/></g>
<g><path style="opacity:1" fill="#8f8f8e" d="M 2340.5,1274.5 C 2341.91,1274.97 2342.57,1275.97 2342.5,1277.5C 2341.09,1277.03 2340.43,1276.03 2340.5,1274.5 Z"/></g>
<g><path style="opacity:1" fill="#767575" d="M 2343.5,1278.5 C 2344.91,1278.97 2345.57,1279.97 2345.5,1281.5C 2344.09,1281.03 2343.43,1280.03 2343.5,1278.5 Z"/></g>
<g><path style="opacity:0.922" fill="#8a8a8a" d="M 1685.5,1280.5 C 1687.03,1280.43 1688.03,1281.09 1688.5,1282.5C 1686.97,1282.57 1685.97,1281.91 1685.5,1280.5 Z"/></g>
<g><path style="opacity:1" fill="#888887" d="M 2347.5,1283.5 C 2349.26,1284.26 2350.26,1285.6 2350.5,1287.5C 2348.74,1286.74 2347.74,1285.4 2347.5,1283.5 Z"/></g>
<g><path style="opacity:0.922" fill="#8a8a8a" d="M 1696.5,1287.5 C 1698.03,1287.43 1699.03,1288.09 1699.5,1289.5C 1697.97,1289.57 1696.97,1288.91 1696.5,1287.5 Z"/></g>
<g><path style="opacity:0.965" fill="#7c7c7b" d="M 1440.5,1290.5 C 1441.71,1290.93 1442.71,1291.6 1443.5,1292.5C 1441.82,1292.71 1440.82,1292.05 1440.5,1290.5 Z"/></g>
<g><path style="opacity:1" fill="#949393" d="M 2354.5,1291.5 C 2356.59,1292.58 2357.92,1294.25 2358.5,1296.5C 2356.41,1295.42 2355.08,1293.75 2354.5,1291.5 Z"/></g>
<g><path style="opacity:0.941" fill="#949493" d="M 1710.5,1296.5 C 1712.03,1296.43 1713.03,1297.09 1713.5,1298.5C 1711.97,1298.57 1710.97,1297.91 1710.5,1296.5 Z"/></g>
<g><path style="opacity:0.961" fill="#797979" d="M 1813.5,1298.5 C 1814.71,1298.93 1815.71,1299.6 1816.5,1300.5C 1814.82,1300.71 1813.82,1300.05 1813.5,1298.5 Z"/></g>
<g><path style="opacity:0.941" fill="#858585" d="M 3599.5,1299.5 C 3601.5,1299.5 3602.5,1300.5 3602.5,1302.5C 3601.17,1301.83 3600.17,1300.83 3599.5,1299.5 Z"/></g>
<g><path style="opacity:0.922" fill="#8c8b8b" d="M 1721.5,1303.5 C 1723.03,1303.43 1724.03,1304.09 1724.5,1305.5C 1722.97,1305.57 1721.97,1304.91 1721.5,1303.5 Z"/></g>
<g><path style="opacity:1" fill="#a2a1a1" d="M 2367.5,1304.5 C 2369.17,1305.5 2370.5,1306.83 2371.5,1308.5C 2369.17,1308.17 2367.83,1306.83 2367.5,1304.5 Z"/></g>
<g><path style="opacity:0.941" fill="#7c7c7b" d="M 3608.5,1307.5 C 3610.4,1307.74 3611.74,1308.74 3612.5,1310.5C 3610.6,1310.26 3609.26,1309.26 3608.5,1307.5 Z"/></g>
<g><path style="opacity:0.922" fill="#8b8a8a" d="M 1732.5,1310.5 C 1734.03,1310.43 1735.03,1311.09 1735.5,1312.5C 1733.97,1312.57 1732.97,1311.91 1732.5,1310.5 Z"/></g>
<g><path style="opacity:0.929" fill="#8e8e8e" d="M 3616.5,1314.5 C 3618.03,1314.43 3619.03,1315.09 3619.5,1316.5C 3617.97,1316.57 3616.97,1315.91 3616.5,1314.5 Z"/></g>
<g><path style="opacity:0.965" fill="#7c7c7b" d="M 1487.5,1316.5 C 1488.71,1316.93 1489.71,1317.6 1490.5,1318.5C 1488.82,1318.71 1487.82,1318.05 1487.5,1316.5 Z"/></g>
<g><path style="opacity:0.941" fill="#949493" d="M 1757.5,1326.5 C 1759.03,1326.43 1760.03,1327.09 1760.5,1328.5C 1758.97,1328.57 1757.97,1327.91 1757.5,1326.5 Z"/></g>
<g><path style="opacity:0.922" fill="#8c8b8b" d="M 1768.5,1333.5 C 1770.03,1333.43 1771.03,1334.09 1771.5,1335.5C 1769.97,1335.57 1768.97,1334.91 1768.5,1333.5 Z"/></g>
<g><path style="opacity:0.929" fill="#878786" d="M 2344.5,1334.5 C 2346.03,1334.43 2347.03,1335.09 2347.5,1336.5C 2345.97,1336.57 2344.97,1335.91 2344.5,1334.5 Z"/></g>
<g><path style="opacity:0.922" fill="#8a8a8a" d="M 1479.5,1337.5 C 1481.03,1337.43 1482.03,1338.09 1482.5,1339.5C 1480.97,1339.57 1479.97,1338.91 1479.5,1337.5 Z"/></g>
<g><path style="opacity:0.922" fill="#8a8a8a" d="M 1779.5,1340.5 C 1781.03,1340.43 1782.03,1341.09 1782.5,1342.5C 1780.97,1342.57 1779.97,1341.91 1779.5,1340.5 Z"/></g>
<g><path style="opacity:0.922" fill="#8a8a8a" d="M 1790.5,1347.5 C 1792.03,1347.43 1793.03,1348.09 1793.5,1349.5C 1791.97,1349.57 1790.97,1348.91 1790.5,1347.5 Z"/></g>
<g><path style="opacity:0.961" fill="#7b7b7b" d="M 1556.5,1354.5 C 1557.71,1354.93 1558.71,1355.6 1559.5,1356.5C 1557.82,1356.71 1556.82,1356.05 1556.5,1354.5 Z"/></g>
<g><path style="opacity:0.922" fill="#777777" d="M 2368.5,1354.5 C 2370.03,1354.43 2371.03,1355.09 2371.5,1356.5C 2369.97,1356.57 2368.97,1355.91 2368.5,1354.5 Z"/></g>
<g><path style="opacity:0.961" fill="#838282" d="M 4600.5,1353.5 C 4600.57,1355.03 4599.91,1356.03 4598.5,1356.5C 4598.43,1354.97 4599.09,1353.97 4600.5,1353.5 Z"/></g>
<g><path style="opacity:0.965" fill="#7c7c7b" d="M 1917.5,1357.5 C 1918.71,1357.93 1919.71,1358.6 1920.5,1359.5C 1918.82,1359.71 1917.82,1359.05 1917.5,1357.5 Z"/></g>
<g><path style="opacity:0.922" fill="#949393" d="M 2372.5,1357.5 C 2374.03,1357.43 2375.03,1358.09 2375.5,1359.5C 2373.97,1359.57 2372.97,1358.91 2372.5,1357.5 Z"/></g>
<g><path style="opacity:0.969" fill="#9d9d9d" d="M 4598.5,1356.5 C 4598.57,1358.03 4597.91,1359.03 4596.5,1359.5C 4596.43,1357.97 4597.09,1356.97 4598.5,1356.5 Z"/></g>
<g><path style="opacity:0.965" fill="#7c7c7b" d="M 1928.5,1363.5 C 1929.71,1363.93 1930.71,1364.6 1931.5,1365.5C 1929.82,1365.71 1928.82,1365.05 1928.5,1363.5 Z"/></g>
<g><path style="opacity:0.922" fill="#8a8a8a" d="M 2384.5,1365.5 C 2386.03,1365.43 2387.03,1366.09 2387.5,1367.5C 2385.97,1367.57 2384.97,1366.91 2384.5,1365.5 Z"/></g>
<g><path style="opacity:0.961" fill="#909090" d="M 4590.5,1368.5 C 4590.57,1370.03 4589.91,1371.03 4588.5,1371.5C 4588.43,1369.97 4589.09,1368.97 4590.5,1368.5 Z"/></g>
<g><path style="opacity:0.965" fill="#7c7c7b" d="M 1585.5,1370.5 C 1586.71,1370.93 1587.71,1371.6 1588.5,1372.5C 1586.82,1372.71 1585.82,1372.05 1585.5,1370.5 Z"/></g>
<g><path style="opacity:0.941" fill="#949493" d="M 1826.5,1370.5 C 1828.03,1370.43 1829.03,1371.09 1829.5,1372.5C 1827.97,1372.57 1826.97,1371.91 1826.5,1370.5 Z"/></g>
<g><path style="opacity:0.933" fill="#a0a09f" d="M 3628.5,1372.5 C 3628.83,1373.17 3629.17,1373.83 3629.5,1374.5C 3626.54,1373.97 3626.21,1373.3 3628.5,1372.5 Z"/></g>
<g><path style="opacity:0.961" fill="#7b7b7b" d="M 1594.5,1375.5 C 1595.71,1375.93 1596.71,1376.6 1597.5,1377.5C 1595.82,1377.71 1594.82,1377.05 1594.5,1375.5 Z"/></g>
<g><path style="opacity:1" fill="#807f7f" d="M 4585.5,1375.5 C 4585.26,1377.4 4584.26,1378.74 4582.5,1379.5C 4582.74,1377.6 4583.74,1376.26 4585.5,1375.5 Z"/></g>
<g><path style="opacity:0.965" fill="#7c7c7b" d="M 1954.5,1377.5 C 1955.71,1377.93 1956.71,1378.6 1957.5,1379.5C 1955.82,1379.71 1954.82,1379.05 1954.5,1377.5 Z"/></g>
<g><path style="opacity:1" fill="#787877" d="M 4581.5,1380.5 C 4581.57,1382.03 4580.91,1383.03 4579.5,1383.5C 4579.43,1381.97 4580.09,1380.97 4581.5,1380.5 Z"/></g>
<g><path style="opacity:0.965" fill="#7c7c7b" d="M 1612.5,1385.5 C 1613.71,1385.93 1614.71,1386.6 1615.5,1387.5C 1613.82,1387.71 1612.82,1387.05 1612.5,1385.5 Z"/></g>
<g><path style="opacity:1" fill="#7b7a7a" d="M 4577.5,1385.5 C 4577.26,1387.4 4576.26,1388.74 4574.5,1389.5C 4574.74,1387.6 4575.74,1386.26 4577.5,1385.5 Z"/></g>
<g><path style="opacity:0.965" fill="#7c7c7b" d="M 1971.5,1386.5 C 1972.71,1386.93 1973.71,1387.6 1974.5,1388.5C 1972.82,1388.71 1971.82,1388.05 1971.5,1386.5 Z"/></g>
<g><path style="opacity:1" fill="#8d8d8d" d="M 4569.5,1394.5 C 4568.58,1397.09 4566.91,1399.09 4564.5,1400.5C 4565.42,1397.91 4567.09,1395.91 4569.5,1394.5 Z"/></g>
<g><path style="opacity:0.922" fill="#8a8a8a" d="M 1867.5,1396.5 C 1869.03,1396.43 1870.03,1397.09 1870.5,1398.5C 1868.97,1398.57 1867.97,1397.91 1867.5,1396.5 Z"/></g>
<g><path style="opacity:0.941" fill="#949493" d="M 1878.5,1403.5 C 1880.03,1403.43 1881.03,1404.09 1881.5,1405.5C 1879.97,1405.57 1878.97,1404.91 1878.5,1403.5 Z"/></g>
<g><path style="opacity:1" fill="#797978" d="M 4557.5,1407.5 C 4555.43,1410.57 4552.76,1412.91 4549.5,1414.5C 4551.57,1411.43 4554.24,1409.09 4557.5,1407.5 Z"/></g>
<g><path style="opacity:0.922" fill="#d4d4d4" d="M 4633.5,1411.5 C 4634.22,1412.55 4635.22,1413.22 4636.5,1413.5C 4635.79,1414.4 4634.79,1414.74 4633.5,1414.5C 4633.5,1413.5 4633.5,1412.5 4633.5,1411.5 Z"/></g>
<g><path style="opacity:0.922" fill="#8c8b8b" d="M 1897.5,1415.5 C 1899.03,1415.43 1900.03,1416.09 1900.5,1417.5C 1898.97,1417.57 1897.97,1416.91 1897.5,1415.5 Z"/></g>
<g><path style="opacity:1" fill="#d0cfcf" d="M 3522.5,1417.5 C 3523.04,1417.56 3523.38,1417.89 3523.5,1418.5C 3522.68,1419.39 3521.68,1419.72 3520.5,1419.5C 3521.17,1418.83 3521.83,1418.17 3522.5,1417.5 Z"/></g>
<g><path style="opacity:1" fill="#686867" d="M 4547.5,1416.5 C 4546.42,1418.59 4544.75,1419.92 4542.5,1420.5C 4543.58,1418.41 4545.25,1417.08 4547.5,1416.5 Z"/></g>
<g><path style="opacity:1" fill="#7e7e7d" d="M 4541.5,1421.5 C 4540.74,1423.26 4539.4,1424.26 4537.5,1424.5C 4538.26,1422.74 4539.6,1421.74 4541.5,1421.5 Z"/></g>
<g><path style="opacity:0.922" fill="#8c8b8b" d="M 1916.5,1427.5 C 1918.03,1427.43 1919.03,1428.09 1919.5,1429.5C 1917.97,1429.57 1916.97,1428.91 1916.5,1427.5 Z"/></g>
<g><path style="opacity:0.941" fill="#949493" d="M 1927.5,1434.5 C 1929.03,1434.43 1930.03,1435.09 1930.5,1436.5C 1928.97,1436.57 1927.97,1435.91 1927.5,1434.5 Z"/></g>
<g><path style="opacity:0.922" fill="#8a8a8a" d="M 1941.5,1443.5 C 1943.03,1443.43 1944.03,1444.09 1944.5,1445.5C 1942.97,1445.57 1941.97,1444.91 1941.5,1443.5 Z"/></g>
<g><path style="opacity:0.922" fill="#8c8b8b" d="M 1944.5,1445.5 C 1946.03,1445.43 1947.03,1446.09 1947.5,1447.5C 1945.97,1447.57 1944.97,1446.91 1944.5,1445.5 Z"/></g>
<g><path style="opacity:1" fill="#868685" d="M 4504.5,1446.5 C 4504.03,1447.91 4503.03,1448.57 4501.5,1448.5C 4501.97,1447.09 4502.97,1446.43 4504.5,1446.5 Z"/></g>
<g><path style="opacity:0.922" fill="#8c8b8b" d="M 1947.5,1447.5 C 1949.03,1447.43 1950.03,1448.09 1950.5,1449.5C 1948.97,1449.57 1947.97,1448.91 1947.5,1447.5 Z"/></g>
<g><path style="opacity:0.922" fill="#949393" d="M 1971.5,1463.5 C 1973.03,1463.43 1974.03,1464.09 1974.5,1465.5C 1972.97,1465.57 1971.97,1464.91 1971.5,1463.5 Z"/></g>
<g><path style="opacity:0.922" fill="#8c8b8b" d="M 1974.5,1465.5 C 1976.03,1465.43 1977.03,1466.09 1977.5,1467.5C 1975.97,1467.57 1974.97,1466.91 1974.5,1465.5 Z"/></g>
<g><path style="opacity:0.922" fill="#8c8b8b" d="M 1977.5,1467.5 C 1979.03,1467.43 1980.03,1468.09 1980.5,1469.5C 1978.97,1469.57 1977.97,1468.91 1977.5,1467.5 Z"/></g>
<g><path style="opacity:0.922" fill="#8c8b8b" d="M 1980.5,1469.5 C 1982.03,1469.43 1983.03,1470.09 1983.5,1471.5C 1981.97,1471.57 1980.97,1470.91 1980.5,1469.5 Z"/></g>
<g><path style="opacity:0.922" fill="#7d7c7c" d="M 1983.5,1471.5 C 1985.03,1471.43 1986.03,1472.09 1986.5,1473.5C 1984.97,1473.57 1983.97,1472.91 1983.5,1471.5 Z"/></g>
<g><path style="opacity:0.922" fill="#8c8b8b" d="M 2049.5,1515.5 C 2051.03,1515.43 2052.03,1516.09 2052.5,1517.5C 2050.97,1517.57 2049.97,1516.91 2049.5,1515.5 Z"/></g>
<g><path style="opacity:0.922" fill="#8a8a8a" d="M 2076.5,1532.5 C 2078.03,1532.43 2079.03,1533.09 2079.5,1534.5C 2077.97,1534.57 2076.97,1533.91 2076.5,1532.5 Z"/></g>
<g><path style="opacity:0.929" fill="#8a8a8a" d="M 2036.5,1653.5 C 2037.91,1653.97 2038.57,1654.97 2038.5,1656.5C 2037.09,1656.03 2036.43,1655.03 2036.5,1653.5 Z"/></g>
<g><path style="opacity:1" fill="#90908f" d="M 2049.5,1677.5 C 2051.88,1680.88 2054.88,1683.54 2058.5,1685.5C 2057.51,1685.33 2056.84,1685.66 2056.5,1686.5C 2053.19,1684.52 2050.19,1682.18 2047.5,1679.5C 2048.83,1679.5 2049.5,1678.83 2049.5,1677.5 Z"/></g>
<g><path style="opacity:1" fill="#030303" d="M 2058.5,1685.5 C 2072.6,1689.88 2086.26,1695.38 2099.5,1702C 2118.74,1719.28 2139.41,1734.62 2161.5,1748C 2196.19,1766.59 2233.19,1777.26 2272.5,1780C 2416,1784.09 2558,1800.76 2698.5,1830C 2830.15,1858.21 2955.81,1902.88 3075.5,1964C 3094.91,1976.39 3111.91,1991.55 3126.5,2009.5C 3126.43,2011.03 3127.09,2012.03 3128.5,2012.5C 3137.28,2021.28 3144.94,2030.95 3151.5,2041.5C 3151.43,2043.03 3152.09,2044.03 3153.5,2044.5C 3154.97,2045.44 3155.97,2046.77 3156.5,2048.5C 3156.43,2050.03 3157.09,2051.03 3158.5,2051.5C 3160.75,2053.65 3162.25,2056.32 3163,2059.5C 3164.04,2065.45 3164.54,2071.45 3164.5,2077.5C 3163.31,2096.4 3161.98,2115.23 3160.5,2134C 3215.72,2153.46 3271.05,2172.63 3326.5,2191.5C 3326.5,2192.17 3326.5,2192.83 3326.5,2193.5C 3197.95,2313.78 3068.95,2433.61 2939.5,2553C 2935.56,2556.43 2932.23,2560.26 2929.5,2564.5C 2929.43,2566.03 2930.09,2567.03 2931.5,2567.5C 2934.52,2570.52 2937.18,2573.85 2939.5,2577.5C 2939.43,2579.03 2940.09,2580.03 2941.5,2580.5C 2944.14,2583.31 2946.64,2586.31 2949,2589.5C 2961.37,2601.03 2973.53,2612.7 2985.5,2624.5C 2986.08,2626.75 2987.41,2628.42 2989.5,2629.5C 2994.89,2634.56 2999.56,2640.23 3003.5,2646.5C 3003.43,2648.03 3004.09,2649.03 3005.5,2649.5C 3005.43,2651.03 3006.09,2652.03 3007.5,2652.5C 3028.22,2684.69 3027.39,2716.36 3005,2747.5C 2989.48,2765.36 2971.31,2779.86 2950.5,2791C 2921.44,2806.69 2890.77,2818.02 2858.5,2825C 2850.87,2826.25 2843.2,2827.25 2835.5,2828C 2800.52,2829.57 2765.52,2829.91 2730.5,2829C 2719.18,2827 2708.84,2822.83 2699.5,2816.5C 2699.03,2815.09 2698.03,2814.43 2696.5,2814.5C 2693.89,2813.56 2691.89,2811.89 2690.5,2809.5C 2690.03,2808.09 2689.03,2807.43 2687.5,2807.5C 2685.5,2806.17 2683.83,2804.5 2682.5,2802.5C 2682.03,2801.09 2681.03,2800.43 2679.5,2800.5C 2661.51,2785.18 2643.84,2769.51 2626.5,2753.5C 2625.74,2751.74 2624.4,2750.74 2622.5,2750.5C 2604.18,2734.84 2586.18,2718.84 2568.5,2702.5C 2568.5,2700.5 2567.5,2699.5 2565.5,2699.5C 2562.83,2697.5 2560.5,2695.17 2558.5,2692.5C 2557.42,2690.41 2555.75,2689.08 2553.5,2688.5C 2545.87,2682.54 2538.87,2675.87 2532.5,2668.5C 2532.03,2667.09 2531.03,2666.43 2529.5,2666.5C 2515.86,2654.53 2502.86,2641.87 2490.5,2628.5C 2490.03,2627.09 2489.03,2626.43 2487.5,2626.5C 2471.06,2611.39 2458.06,2593.72 2448.5,2573.5C 2448.71,2571.82 2448.05,2570.82 2446.5,2570.5C 2441.09,2559.34 2435.42,2548.34 2429.5,2537.5C 2429.71,2535.82 2429.05,2534.82 2427.5,2534.5C 2426.5,2532.5 2425.5,2530.5 2424.5,2528.5C 2440.31,2526.84 2456.31,2525.84 2472.5,2525.5C 2560.83,2524.43 2649.16,2524.26 2737.5,2525C 2763.83,2526.08 2790.17,2526.75 2816.5,2527C 2834.71,2524.89 2850.71,2517.89 2864.5,2506C 2868.7,2501.63 2873.04,2497.46 2877.5,2493.5C 2879.59,2492.42 2880.92,2490.75 2881.5,2488.5C 2905.15,2458.19 2929.15,2428.19 2953.5,2398.5C 2954.91,2398.03 2955.57,2397.03 2955.5,2395.5C 2963.45,2383.92 2972.12,2372.92 2981.5,2362.5C 2982.91,2362.03 2983.57,2361.03 2983.5,2359.5C 2988.15,2352.85 2993.15,2346.52 2998.5,2340.5C 2999.91,2340.03 3000.57,2339.03 3000.5,2337.5C 3009.48,2325.19 3018.82,2313.19 3028.5,2301.5C 3029.91,2301.03 3030.57,2300.03 3030.5,2298.5C 3045.81,2277.86 3061.48,2257.52 3077.5,2237.5C 3078.91,2237.03 3079.57,2236.03 3079.5,2234.5C 3082.43,2229.23 3086.1,2224.57 3090.5,2220.5C 3091.91,2220.03 3092.57,2219.03 3092.5,2217.5C 3099.15,2208.19 3106.15,2199.19 3113.5,2190.5C 3114.91,2190.03 3115.57,2189.03 3115.5,2187.5C 3115.5,2186.83 3115.83,2186.5 3116.5,2186.5C 3117.91,2186.03 3118.57,2185.03 3118.5,2183.5C 3119.47,2181.2 3120.81,2179.2 3122.5,2177.5C 3123.91,2177.03 3124.57,2176.03 3124.5,2174.5C 3127.97,2166.9 3131.97,2159.57 3136.5,2152.5C 3116.03,2148.85 3095.36,2147.18 3074.5,2147.5C 3035.1,2147.84 2996.1,2152.01 2957.5,2160C 2892.9,2174.98 2828.24,2189.65 2763.5,2204C 2652.29,2225.98 2540.95,2247.31 2429.5,2268C 2300.63,2292.13 2172.96,2321.47 2046.5,2356C 1938.59,2385.98 1830.59,2415.64 1722.5,2445C 1645.08,2465.52 1567.08,2483.52 1488.5,2499C 1397.63,2514.93 1306.63,2515.59 1215.5,2501C 1148.09,2490.31 1082.09,2473.98 1017.5,2452C 816.446,2377.31 613.446,2307.98 408.5,2244C 396.945,2240.86 385.279,2238.19 373.5,2236C 345.076,2231.87 316.742,2227.21 288.5,2222C 275.135,2219.24 262.135,2215.41 249.5,2210.5C 249.5,2209.83 249.5,2209.17 249.5,2208.5C 880.763,2064.52 1512.1,1920.85 2143.5,1777.5C 2145.42,1777.29 2145.76,1776.62 2144.5,1775.5C 2115.19,1745.86 2085.86,1716.19 2056.5,1686.5C 2056.84,1685.66 2057.51,1685.33 2058.5,1685.5 Z M 2313.5,1856.5 C 2313.97,1857.91 2314.97,1858.57 2316.5,1858.5C 2319.52,1860.67 2322.85,1862.34 2326.5,1863.5C 2326.97,1864.91 2327.97,1865.57 2329.5,1865.5C 2333.18,1868.01 2337.18,1870.01 2341.5,1871.5C 2341.97,1872.91 2342.97,1873.57 2344.5,1873.5C 2381.51,1893.34 2418.84,1912.67 2456.5,1931.5C 2456.97,1932.91 2457.97,1933.57 2459.5,1933.5C 2483.16,1946.16 2506.83,1958.83 2530.5,1971.5C 2530.97,1972.91 2531.97,1973.57 2533.5,1973.5C 2533.97,1974.91 2534.97,1975.57 2536.5,1975.5C 2536.97,1976.91 2537.97,1977.57 2539.5,1977.5C 2540.44,1978.97 2541.77,1979.97 2543.5,1980.5C 2543.97,1981.91 2544.97,1982.57 2546.5,1982.5C 2546.5,1983.17 2546.83,1983.5 2547.5,1983.5C 2548.26,1985.26 2549.6,1986.26 2551.5,1986.5C 2552.17,1987.83 2553.17,1988.83 2554.5,1989.5C 2554.97,1990.91 2555.97,1991.57 2557.5,1991.5C 2564.83,1999 2571.99,2006.66 2579,2014.5C 2586.21,2023.25 2590.37,2033.25 2591.5,2044.5C 2591.73,2049.46 2590.73,2054.12 2588.5,2058.5C 2587.09,2058.97 2586.43,2059.97 2586.5,2061.5C 2576,2071.42 2563.67,2078.26 2549.5,2082C 2497.79,2096.18 2446.12,2110.51 2394.5,2125C 2046.5,2219.67 1698.5,2314.33 1350.5,2409C 1317.56,2417.53 1284.23,2419.53 1250.5,2415C 1232.27,2412.49 1214.27,2408.82 1196.5,2404C 1080.68,2368.38 964.684,2333.38 848.5,2299C 776.098,2278.07 703.431,2258.07 630.5,2239C 605.382,2233.86 580.049,2230.19 554.5,2228C 511.166,2224.77 467.833,2221.6 424.5,2218.5C 422.5,2217.83 420.5,2217.17 418.5,2216.5C 426.937,2207.56 435.604,2198.73 444.5,2190C 446.717,2188.72 449.051,2187.72 451.5,2187C 649.583,2140.56 847.916,2095.23 1046.5,2051C 1346.89,1985.07 1647.56,1920.4 1948.5,1857C 1991.6,1847.63 2033.93,1835.63 2075.5,1821C 2138.73,1801.46 2200.73,1804.8 2261.5,1831C 2279.01,1839.25 2296.34,1847.75 2313.5,1856.5 Z"/></g>
<g><path style="opacity:0.922" fill="#8c8b8b" d="M 4329.5,1751.5 C 4331.03,1751.43 4332.03,1752.09 4332.5,1753.5C 4330.97,1753.57 4329.97,1752.91 4329.5,1751.5 Z"/></g>
<g><path style="opacity:0.922" fill="#7d7c7c" d="M 4332.5,1753.5 C 4334.03,1753.43 4335.03,1754.09 4335.5,1755.5C 4333.97,1755.57 4332.97,1754.91 4332.5,1753.5 Z"/></g>
<g><path style="opacity:0.929" fill="#8e8e8e" d="M 4342.5,1761.5 C 4344.03,1761.43 4345.03,1762.09 4345.5,1763.5C 4343.97,1763.57 4342.97,1762.91 4342.5,1761.5 Z"/></g>
<g><path style="opacity:0.91" fill="#b3b2b2" d="M 2144.5,1775.5 C 2145.76,1776.62 2145.42,1777.29 2143.5,1777.5C 2143.83,1776.83 2144.17,1776.17 2144.5,1775.5 Z"/></g>
<g><path style="opacity:0.922" fill="#7e7e7d" d="M 4514.5,1813.5 C 4515.91,1813.97 4516.57,1814.97 4516.5,1816.5C 4515.09,1816.03 4514.43,1815.03 4514.5,1813.5 Z"/></g>
<g><path style="opacity:0.941" fill="#a3a2a2" d="M 2313.5,1856.5 C 2315.03,1856.43 2316.03,1857.09 2316.5,1858.5C 2314.97,1858.57 2313.97,1857.91 2313.5,1856.5 Z"/></g>
<g><path style="opacity:0.941" fill="#a3a2a2" d="M 2326.5,1863.5 C 2328.03,1863.43 2329.03,1864.09 2329.5,1865.5C 2327.97,1865.57 2326.97,1864.91 2326.5,1863.5 Z"/></g>
<g><path style="opacity:0.941" fill="#a3a2a2" d="M 2341.5,1871.5 C 2343.03,1871.43 2344.03,1872.09 2344.5,1873.5C 2342.97,1873.57 2341.97,1872.91 2341.5,1871.5 Z"/></g>
<g><path style="opacity:0.965" fill="#5b5b5a" d="M 4347.5,1869.5 C 4346.17,1872.83 4343.83,1875.17 4340.5,1876.5C 4342.5,1873.83 4344.83,1871.5 4347.5,1869.5 Z"/></g>
<g><path style="opacity:0.965" fill="#545453" d="M 4265.5,1921.5 C 4264.09,1923.91 4262.09,1925.58 4259.5,1926.5C 4260.91,1924.09 4262.91,1922.42 4265.5,1921.5 Z"/></g>
<g><path style="opacity:0.941" fill="#a3a2a2" d="M 2456.5,1931.5 C 2458.03,1931.43 2459.03,1932.09 2459.5,1933.5C 2457.97,1933.57 2456.97,1932.91 2456.5,1931.5 Z"/></g>
<g><path style="opacity:0.929" fill="#797978" d="M 4234.5,1951.5 C 4233.58,1954.09 4231.91,1956.09 4229.5,1957.5C 4230.42,1954.91 4232.09,1952.91 4234.5,1951.5 Z"/></g>
<g><path style="opacity:0.961" fill="#858484" d="M 2530.5,1971.5 C 2532.03,1971.43 2533.03,1972.09 2533.5,1973.5C 2531.97,1973.57 2530.97,1972.91 2530.5,1971.5 Z"/></g>
<g><path style="opacity:0.961" fill="#868685" d="M 2533.5,1973.5 C 2535.03,1973.43 2536.03,1974.09 2536.5,1975.5C 2534.97,1975.57 2533.97,1974.91 2533.5,1973.5 Z"/></g>
<g><path style="opacity:0.961" fill="#868685" d="M 2536.5,1975.5 C 2538.03,1975.43 2539.03,1976.09 2539.5,1977.5C 2537.97,1977.57 2536.97,1976.91 2536.5,1975.5 Z"/></g>
<g><path style="opacity:1" fill="#757574" d="M 2543.5,1980.5 C 2545.03,1980.43 2546.03,1981.09 2546.5,1982.5C 2544.97,1982.57 2543.97,1981.91 2543.5,1980.5 Z"/></g>
<g><path style="opacity:1" fill="#7c7c7b" d="M 2547.5,1983.5 C 2549.4,1983.74 2550.74,1984.74 2551.5,1986.5C 2549.6,1986.26 2548.26,1985.26 2547.5,1983.5 Z"/></g>
<g><path style="opacity:0.922" fill="#7e7e7d" d="M 4200.5,1986.5 C 4200.57,1988.03 4199.91,1989.03 4198.5,1989.5C 4198.43,1987.97 4199.09,1986.97 4200.5,1986.5 Z"/></g>
<g><path style="opacity:1" fill="#999999" d="M 2554.5,1989.5 C 2556.03,1989.43 2557.03,1990.09 2557.5,1991.5C 2555.97,1991.57 2554.97,1990.91 2554.5,1989.5 Z"/></g>
<g><path style="opacity:0.922" fill="#848484" d="M 4193.5,1996.5 C 4193.57,1998.03 4192.91,1999.03 4191.5,1999.5C 4191.43,1997.97 4192.09,1996.97 4193.5,1996.5 Z"/></g>
<g><path style="opacity:0.941" fill="#949493" d="M 4553.5,2006.5 C 4554.91,2006.97 4555.57,2007.97 4555.5,2009.5C 4554.09,2009.03 4553.43,2008.03 4553.5,2006.5 Z"/></g>
<g><path style="opacity:0.929" fill="#8a8a8a" d="M 3126.5,2009.5 C 3127.91,2009.97 3128.57,2010.97 3128.5,2012.5C 3127.09,2012.03 3126.43,2011.03 3126.5,2009.5 Z"/></g>
<g><path style="opacity:0.922" fill="#949393" d="M 4555.5,2009.5 C 4556.91,2009.97 4557.57,2010.97 4557.5,2012.5C 4556.09,2012.03 4555.43,2011.03 4555.5,2009.5 Z"/></g>
<g><path style="opacity:0.922" fill="#949393" d="M 4560.5,2016.5 C 4561.91,2016.97 4562.57,2017.97 4562.5,2019.5C 4561.09,2019.03 4560.43,2018.03 4560.5,2016.5 Z"/></g>
<g><path style="opacity:0.922" fill="#8c8b8b" d="M 4562.5,2019.5 C 4563.91,2019.97 4564.57,2020.97 4564.5,2022.5C 4563.09,2022.03 4562.43,2021.03 4562.5,2019.5 Z"/></g>
<g><path style="opacity:0.922" fill="#7e7e7d" d="M 3151.5,2041.5 C 3152.91,2041.97 3153.57,2042.97 3153.5,2044.5C 3152.09,2044.03 3151.43,2043.03 3151.5,2041.5 Z"/></g>
<g><path style="opacity:0.922" fill="#777777" d="M 3156.5,2048.5 C 3157.91,2048.97 3158.57,2049.97 3158.5,2051.5C 3157.09,2051.03 3156.43,2050.03 3156.5,2048.5 Z"/></g>
<g><path style="opacity:0.961" fill="#909090" d="M 2588.5,2058.5 C 2588.57,2060.03 2587.91,2061.03 2586.5,2061.5C 2586.43,2059.97 2587.09,2058.97 2588.5,2058.5 Z"/></g>
<g><path style="opacity:0.969" fill="#797979" d="M 4204.5,2080.5 C 4206.4,2080.74 4207.74,2081.74 4208.5,2083.5C 4206.6,2083.26 4205.26,2082.26 4204.5,2080.5 Z"/></g>
<g><path style="opacity:0.973" fill="#a7a7a6" d="M 4227.5,2130.5 C 4228.12,2130.92 4228.46,2131.58 4228.5,2132.5C 4228.25,2133.71 4227.59,2134.38 4226.5,2134.5C 4227.23,2133.29 4227.57,2131.96 4227.5,2130.5 Z"/></g>
<g><path style="opacity:0.922" fill="#8a8a8a" d="M 3124.5,2174.5 C 3124.57,2176.03 3123.91,2177.03 3122.5,2177.5C 3122.43,2175.97 3123.09,2174.97 3124.5,2174.5 Z"/></g>
<g><path style="opacity:0.929" fill="#868686" d="M 3118.5,2183.5 C 3118.57,2185.03 3117.91,2186.03 3116.5,2186.5C 3116.43,2184.97 3117.09,2183.97 3118.5,2183.5 Z"/></g>
<g><path style="opacity:0.941" fill="#757574" d="M 3115.5,2187.5 C 3115.57,2189.03 3114.91,2190.03 3113.5,2190.5C 3113.43,2188.97 3114.09,2187.97 3115.5,2187.5 Z"/></g>
<g><path style="opacity:0.922" fill="#989898" d="M 3326.5,2191.5 C 3329.17,2192.17 3329.17,2192.83 3326.5,2193.5C 3326.5,2192.83 3326.5,2192.17 3326.5,2191.5 Z"/></g>
<g><path style="opacity:1" fill="#c1c1c1" d="M 249.5,2208.5 C 249.5,2209.17 249.5,2209.83 249.5,2210.5C 246.833,2209.83 246.833,2209.17 249.5,2208.5 Z"/></g>
<g><path style="opacity:0.878" fill="#b3b3b3" d="M 418.5,2216.5 C 420.5,2217.17 422.5,2217.83 424.5,2218.5C 422.076,2218.81 419.743,2218.47 417.5,2217.5C 417.624,2216.89 417.957,2216.56 418.5,2216.5 Z"/></g>
<g><path style="opacity:0.922" fill="#7e7e7d" d="M 3092.5,2217.5 C 3092.57,2219.03 3091.91,2220.03 3090.5,2220.5C 3090.43,2218.97 3091.09,2217.97 3092.5,2217.5 Z"/></g>
<g><path style="opacity:0.878" fill="#929291" d="M 3442.5,2219.5 C 3440.26,2219.21 3438.26,2219.54 3436.5,2220.5C 3426.5,2219.4 3416.5,2218.23 3406.5,2217C 3418.69,2217 3430.69,2217.84 3442.5,2219.5 Z"/></g>
<g><path style="opacity:0.933" fill="#585757" d="M 3436.5,2220.5 C 3438.26,2219.54 3440.26,2219.21 3442.5,2219.5C 3446.7,2219.18 3450.7,2219.52 3454.5,2220.5C 3451.61,2220.19 3448.95,2220.53 3446.5,2221.5C 3443.14,2221.38 3439.81,2221.05 3436.5,2220.5 Z"/></g>
<g><path style="opacity:0.922" fill="#959494" d="M 4023.5,2220.5 C 4022.83,2221.17 4022.17,2221.83 4021.5,2222.5C 4020.96,2222.44 4020.62,2222.11 4020.5,2221.5C 4021.32,2220.61 4022.32,2220.28 4023.5,2220.5 Z"/></g>
<g><path style="opacity:0.922" fill="#8c8b8b" d="M 4021.5,2222.5 C 4022.91,2222.97 4023.57,2223.97 4023.5,2225.5C 4022.09,2225.03 4021.43,2224.03 4021.5,2222.5 Z"/></g>
<g><path style="opacity:0.941" fill="#757574" d="M 3079.5,2234.5 C 3079.57,2236.03 3078.91,2237.03 3077.5,2237.5C 3077.43,2235.97 3078.09,2234.97 3079.5,2234.5 Z"/></g>
<g><path style="opacity:0.922" fill="#8c8b8b" d="M 4032.5,2238.5 C 4033.91,2238.97 4034.57,2239.97 4034.5,2241.5C 4033.09,2241.03 4032.43,2240.03 4032.5,2238.5 Z"/></g>
<g><path style="opacity:0.922" fill="#777777" d="M 4034.5,2241.5 C 4035.91,2241.97 4036.57,2242.97 4036.5,2244.5C 4035.09,2244.03 4034.43,2243.03 4034.5,2241.5 Z"/></g>
<g><path style="opacity:0.922" fill="#8d8d8c" d="M 4043.5,2254.5 C 4044.91,2254.97 4045.57,2255.97 4045.5,2257.5C 4044.09,2257.03 4043.43,2256.03 4043.5,2254.5 Z"/></g>
<g><path style="opacity:0.929" fill="#858584" d="M 4045.5,2257.5 C 4046.91,2257.97 4047.57,2258.97 4047.5,2260.5C 4046.09,2260.03 4045.43,2259.03 4045.5,2257.5 Z"/></g>
<g><path style="opacity:0.922" fill="#949393" d="M 4054.5,2270.5 C 4055.91,2270.97 4056.57,2271.97 4056.5,2273.5C 4055.09,2273.03 4054.43,2272.03 4054.5,2270.5 Z"/></g>
<g><path style="opacity:0.929" fill="#858584" d="M 4056.5,2273.5 C 4057.91,2273.97 4058.57,2274.97 4058.5,2276.5C 4057.09,2276.03 4056.43,2275.03 4056.5,2273.5 Z"/></g>
<g><path style="opacity:0.906" fill="#7d7c7c" d="M 3030.5,2298.5 C 3030.57,2300.03 3029.91,2301.03 3028.5,2301.5C 3028.43,2299.97 3029.09,2298.97 3030.5,2298.5 Z"/></g>
<g><path style="opacity:0.922" fill="#8a8a8a" d="M 3665.5,2300.5 C 3667.03,2300.43 3668.03,2301.09 3668.5,2302.5C 3666.97,2302.57 3665.97,2301.91 3665.5,2300.5 Z"/></g>
<g><path style="opacity:0.922" fill="#8c8b8b" d="M 3668.5,2302.5 C 3670.03,2302.43 3671.03,2303.09 3671.5,2304.5C 3669.97,2304.57 3668.97,2303.91 3668.5,2302.5 Z"/></g>
<g><path style="opacity:0.922" fill="#8c8b8b" d="M 3671.5,2304.5 C 3673.03,2304.43 3674.03,2305.09 3674.5,2306.5C 3672.97,2306.57 3671.97,2305.91 3671.5,2304.5 Z"/></g>
<g><path style="opacity:0.922" fill="#8c8b8b" d="M 3674.5,2306.5 C 3676.03,2306.43 3677.03,2307.09 3677.5,2308.5C 3675.97,2308.57 3674.97,2307.91 3674.5,2306.5 Z"/></g>
<g><path style="opacity:0.922" fill="#7d7c7c" d="M 3677.5,2308.5 C 3679.03,2308.43 3680.03,2309.09 3680.5,2310.5C 3678.97,2310.57 3677.97,2309.91 3677.5,2308.5 Z"/></g>
<g><path style="opacity:0.922" fill="#949393" d="M 3684.5,2313.5 C 3686.03,2313.43 3687.03,2314.09 3687.5,2315.5C 3685.97,2315.57 3684.97,2314.91 3684.5,2313.5 Z"/></g>
<g><path style="opacity:0.922" fill="#7e7e7d" d="M 3691.5,2318.5 C 3693.03,2318.43 3694.03,2319.09 3694.5,2320.5C 3692.97,2320.57 3691.97,2319.91 3691.5,2318.5 Z"/></g>
<g><path style="opacity:0.922" fill="#7e7e7d" d="M 3695.5,2321.5 C 3697.03,2321.43 3698.03,2322.09 3698.5,2323.5C 3696.97,2323.57 3695.97,2322.91 3695.5,2321.5 Z"/></g>
<g><path style="opacity:0.922" fill="#7e7e7d" d="M 3000.5,2337.5 C 3000.57,2339.03 2999.91,2340.03 2998.5,2340.5C 2998.43,2338.97 2999.09,2337.97 3000.5,2337.5 Z"/></g>
<g><path style="opacity:0.929" fill="#8a8a8a" d="M 3721.5,2342.5 C 3723.03,2342.43 3724.03,2343.09 3724.5,2344.5C 3722.97,2344.57 3721.97,2343.91 3721.5,2342.5 Z"/></g>
<g><path style="opacity:0.922" fill="#7e7e7d" d="M 2983.5,2359.5 C 2983.57,2361.03 2982.91,2362.03 2981.5,2362.5C 2981.43,2360.97 2982.09,2359.97 2983.5,2359.5 Z"/></g>
<g><path style="opacity:0.941" fill="#757574" d="M 2955.5,2395.5 C 2955.57,2397.03 2954.91,2398.03 2953.5,2398.5C 2953.43,2396.97 2954.09,2395.97 2955.5,2395.5 Z"/></g>
<g><path style="opacity:0.929" fill="#7f7f7e" d="M 2881.5,2488.5 C 2880.92,2490.75 2879.59,2492.42 2877.5,2493.5C 2878.08,2491.25 2879.41,2489.58 2881.5,2488.5 Z"/></g>
<g><path style="opacity:0.878" fill="#4c4b4b" d="M 2472.5,2525.5 C 2456.31,2525.84 2440.31,2526.84 2424.5,2528.5C 2423.73,2527.83 2423.07,2526.99 2422.5,2526C 2439.16,2525.5 2455.83,2525.33 2472.5,2525.5 Z"/></g>
<g><path style="opacity:0.965" fill="#7c7c7b" d="M 2427.5,2534.5 C 2429.05,2534.82 2429.71,2535.82 2429.5,2537.5C 2428.6,2536.71 2427.93,2535.71 2427.5,2534.5 Z"/></g>
<g><path style="opacity:0.929" fill="#8f8f8f" d="M 2929.5,2564.5 C 2930.91,2564.97 2931.57,2565.97 2931.5,2567.5C 2930.09,2567.03 2929.43,2566.03 2929.5,2564.5 Z"/></g>
<g><path style="opacity:0.965" fill="#7c7c7b" d="M 2446.5,2570.5 C 2448.05,2570.82 2448.71,2571.82 2448.5,2573.5C 2447.6,2572.71 2446.93,2571.71 2446.5,2570.5 Z"/></g>
<g><path style="opacity:0.922" fill="#7e7e7d" d="M 2939.5,2577.5 C 2940.91,2577.97 2941.57,2578.97 2941.5,2580.5C 2940.09,2580.03 2939.43,2579.03 2939.5,2577.5 Z"/></g>
<g><path style="opacity:0.969" fill="#7d7d7d" d="M 2985.5,2624.5 C 2987.59,2625.58 2988.92,2627.25 2989.5,2629.5C 2987.41,2628.42 2986.08,2626.75 2985.5,2624.5 Z"/></g>
<g><path style="opacity:0.929" fill="#8a8a8a" d="M 2487.5,2626.5 C 2489.03,2626.43 2490.03,2627.09 2490.5,2628.5C 2488.97,2628.57 2487.97,2627.91 2487.5,2626.5 Z"/></g>
<g><path style="opacity:0.922" fill="#949393" d="M 3003.5,2646.5 C 3004.91,2646.97 3005.57,2647.97 3005.5,2649.5C 3004.09,2649.03 3003.43,2648.03 3003.5,2646.5 Z"/></g>
<g><path style="opacity:0.941" fill="#949493" d="M 3005.5,2649.5 C 3006.91,2649.97 3007.57,2650.97 3007.5,2652.5C 3006.09,2652.03 3005.43,2651.03 3005.5,2649.5 Z"/></g>
<g><path style="opacity:0.929" fill="#878786" d="M 2529.5,2666.5 C 2531.03,2666.43 2532.03,2667.09 2532.5,2668.5C 2530.97,2668.57 2529.97,2667.91 2529.5,2666.5 Z"/></g>
<g><path style="opacity:0.965" fill="#787877" d="M 2553.5,2688.5 C 2555.75,2689.08 2557.42,2690.41 2558.5,2692.5C 2556.25,2691.92 2554.58,2690.59 2553.5,2688.5 Z"/></g>
<g><path style="opacity:0.941" fill="#858585" d="M 2565.5,2699.5 C 2567.5,2699.5 2568.5,2700.5 2568.5,2702.5C 2567.17,2701.83 2566.17,2700.83 2565.5,2699.5 Z"/></g>
<g><path style="opacity:0.878" fill="#acacac" d="M 4052.5,2714.5 C 4051.93,2718.33 4052.6,2721.66 4054.5,2724.5C 4053.83,2725.27 4052.99,2725.93 4052,2726.5C 4051.19,2722.31 4051.35,2718.31 4052.5,2714.5 Z"/></g>
<g><path style="opacity:0.941" fill="#808080" d="M 2622.5,2750.5 C 2624.4,2750.74 2625.74,2751.74 2626.5,2753.5C 2624.6,2753.26 2623.26,2752.26 2622.5,2750.5 Z"/></g>
<g><path style="opacity:0.929" fill="#878786" d="M 2679.5,2800.5 C 2681.03,2800.43 2682.03,2801.09 2682.5,2802.5C 2680.97,2802.57 2679.97,2801.91 2679.5,2800.5 Z"/></g>
<g><path style="opacity:0.929" fill="#8a8a8a" d="M 2687.5,2807.5 C 2689.03,2807.43 2690.03,2808.09 2690.5,2809.5C 2688.97,2809.57 2687.97,2808.91 2687.5,2807.5 Z"/></g>
<g><path style="opacity:0.922" fill="#8c8b8b" d="M 2696.5,2814.5 C 2698.03,2814.43 2699.03,2815.09 2699.5,2816.5C 2697.97,2816.57 2696.97,2815.91 2696.5,2814.5 Z"/></g>
<g><path style="opacity:0.979" fill="#9c9d9b" d="M 625.5,2987.5 C 637.408,2986.16 648.742,2987.99 659.5,2993C 660.667,2994.83 661.833,2996.67 663,2998.5C 663.5,3053.17 663.667,3107.83 663.5,3162.5C 729.834,3162.33 796.168,3162.5 862.5,3163C 900.272,3167.47 933.939,3181.47 963.5,3205C 982.554,3220.72 995.054,3240.55 1001,3264.5C 1002.15,3310.46 1002.65,3356.46 1002.5,3402.5C 1002.33,3446.83 1002.17,3491.17 1002,3535.5C 999.884,3541.99 995.384,3545.83 988.5,3547C 980.833,3547.67 973.167,3547.67 965.5,3547C 959.678,3545.68 955.178,3542.51 952,3537.5C 951.667,3449.17 951.333,3360.83 951,3272.5C 947.456,3253.57 937.956,3238.41 922.5,3227C 895.169,3209.11 865.169,3199.45 832.5,3198C 776.168,3197.5 719.834,3197.33 663.5,3197.5C 663.667,3310.17 663.5,3422.83 663,3535.5C 656.767,3544.61 648.1,3548.61 637,3547.5C 627.65,3548.67 619.65,3546 613,3539.5C 612.138,3537.91 611.471,3536.25 611,3534.5C 610.333,3356.17 610.333,3177.83 611,2999.5C 614.069,2993.23 618.902,2989.23 625.5,2987.5 Z"/></g>
<g><path style="opacity:0.983" fill="#9c9d9b" d="M 1560.5,2987.5 C 1568.89,2987.17 1577.23,2987.67 1585.5,2989C 1591.28,2990.13 1595.44,2993.3 1598,2998.5C 1598.67,3177.5 1598.67,3356.5 1598,3535.5C 1597.48,3538.03 1596.32,3540.2 1594.5,3542C 1591.2,3544.43 1587.54,3546.1 1583.5,3547C 1503.49,3547.94 1423.49,3547.61 1343.5,3546C 1295.96,3539.98 1256.46,3519.15 1225,3483.5C 1213.55,3468.48 1207.21,3451.48 1206,3432.5C 1205.33,3376.17 1205.33,3319.83 1206,3263.5C 1208.5,3248.84 1214.5,3235.84 1224,3224.5C 1254.4,3191.71 1291.9,3172.21 1336.5,3166C 1345.79,3164.63 1355.13,3163.63 1364.5,3163C 1424.83,3162.5 1485.17,3162.33 1545.5,3162.5C 1545.33,3108.17 1545.5,3053.83 1546,2999.5C 1546.88,2996.9 1548.38,2994.73 1550.5,2993C 1553.77,2990.87 1557.1,2989.04 1560.5,2987.5 Z M 1374.5,3197.5 C 1431.5,3197.5 1488.5,3197.5 1545.5,3197.5C 1545.5,3302.17 1545.5,3406.83 1545.5,3511.5C 1485.83,3511.67 1426.17,3511.5 1366.5,3511C 1334.93,3509.37 1307.26,3498.37 1283.5,3478C 1269.96,3465.43 1261.79,3449.93 1259,3431.5C 1258.33,3378.5 1258.33,3325.5 1259,3272.5C 1263.49,3252.02 1274.32,3235.86 1291.5,3224C 1316.84,3207.61 1344.5,3198.78 1374.5,3197.5 Z"/></g>
<g><path style="opacity:0.977" fill="#009ee3" d="M 1977.5,2987.5 C 2058.24,2986.19 2137.57,2996.03 2215.5,3017C 2227.69,3019.52 2233.52,3027.02 2233,3039.5C 2226.53,3048.78 2217.53,3053.12 2206,3052.5C 2200.42,3052.19 2194.92,3051.35 2189.5,3050C 2120.59,3029.93 2050.25,3021.26 1978.5,3024C 1943.33,3027.16 1911.66,3039.16 1883.5,3060C 1845.67,3093.86 1841.5,3131.36 1871,3172.5C 1886.67,3189.49 1905.5,3201.65 1927.5,3209C 2016.72,3239.07 2105.72,3269.74 2194.5,3301C 2222.38,3312.23 2244.88,3330.06 2262,3354.5C 2285.03,3397.03 2282.36,3437.7 2254,3476.5C 2224.25,3511.3 2186.75,3533.14 2141.5,3542C 2079.76,3551.15 2018.43,3548.81 1957.5,3535C 1913.27,3525.53 1870.27,3512.19 1828.5,3495C 1820.22,3491.53 1812.22,3487.53 1804.5,3483C 1799.74,3478.51 1798.24,3473.01 1800,3466.5C 1802.76,3458.86 1808.26,3454.69 1816.5,3454C 1821.17,3453.33 1825.83,3453.33 1830.5,3454C 1889.16,3478.17 1949.83,3495.5 2012.5,3506C 2043.67,3511.17 2075.01,3512.83 2106.5,3511C 2145.99,3506.34 2179.49,3489.84 2207,3461.5C 2231.96,3428.15 2231.63,3395.15 2206,3362.5C 2193.76,3349.94 2179.6,3340.1 2163.5,3333C 2154.17,3329.33 2144.83,3325.67 2135.5,3322C 2052.17,3292.67 1968.83,3263.33 1885.5,3234C 1855.77,3220.89 1831.61,3201.06 1813,3174.5C 1797.31,3144.75 1795.31,3114.09 1807,3082.5C 1817.9,3061.94 1832.73,3044.77 1851.5,3031C 1876.47,3012.89 1904.13,3000.56 1934.5,2994C 1948.9,2991.3 1963.23,2989.13 1977.5,2987.5 Z"/></g>
<g><path style="opacity:0.973" fill="#009ee3" d="M 4108.5,2987.5 C 4120.08,2986.18 4131.08,2988.02 4141.5,2993C 4142.67,2994.83 4143.83,2996.67 4145,2998.5C 4146.06,3013.59 4145.39,3028.59 4143,3043.5C 4134.4,3051.53 4124.23,3054.36 4112.5,3052C 4101.11,3050.29 4094.95,3043.79 4094,3032.5C 4093.33,3021.17 4093.33,3009.83 4094,2998.5C 4097.31,2992.67 4102.15,2989 4108.5,2987.5 Z"/></g>
<g><path style="opacity:0.983" fill="#9c9d9b" d="M 261.5,3162.5 C 305.835,3162.33 350.168,3162.5 394.5,3163C 405.889,3166.61 409.722,3174.11 406,3185.5C 403.341,3191.49 398.841,3195.33 392.5,3197C 349.5,3197.33 306.5,3197.67 263.5,3198C 234.069,3199.81 207.403,3209.14 183.5,3226C 167.734,3237.78 157.567,3253.28 153,3272.5C 152.333,3328.5 152.333,3384.5 153,3440.5C 155.135,3449.77 159.135,3458.1 165,3465.5C 185.654,3488.91 211.488,3503.08 242.5,3508C 252.448,3509.51 262.448,3510.51 272.5,3511C 301.841,3511.77 331.174,3511.6 360.5,3510.5C 370.162,3511.08 379.829,3511.58 389.5,3512C 409.035,3516.73 412.701,3527.07 400.5,3543C 399.167,3543.67 397.833,3544.33 396.5,3545C 346.225,3546.65 295.892,3546.99 245.5,3546C 208.196,3543.13 174.529,3530.79 144.5,3509C 127.795,3495.29 115.295,3478.46 107,3458.5C 103.981,3450.07 101.981,3441.41 101,3432.5C 100.333,3376.83 100.333,3321.17 101,3265.5C 103.717,3248.74 110.717,3234.07 122,3221.5C 148.679,3193.4 181.179,3175.57 219.5,3168C 233.57,3165.56 247.57,3163.73 261.5,3162.5 Z"/></g>
<g><path style="opacity:0.983" fill="#009ee3" d="M 2640.5,3162.5 C 2684.83,3162.33 2729.17,3162.5 2773.5,3163C 2784.89,3166.61 2788.72,3174.11 2785,3185.5C 2782.34,3191.49 2777.84,3195.33 2771.5,3197C 2728.5,3197.33 2685.5,3197.67 2642.5,3198C 2613.07,3199.81 2586.4,3209.14 2562.5,3226C 2546.73,3237.78 2536.57,3253.28 2532,3272.5C 2531.33,3328.5 2531.33,3384.5 2532,3440.5C 2534.13,3449.77 2538.13,3458.1 2544,3465.5C 2564.65,3488.91 2590.49,3503.08 2621.5,3508C 2631.45,3509.51 2641.45,3510.51 2651.5,3511C 2680.84,3511.77 2710.17,3511.6 2739.5,3510.5C 2749.16,3511.08 2758.83,3511.58 2768.5,3512C 2788.03,3516.73 2791.7,3527.07 2779.5,3543C 2778.17,3543.67 2776.83,3544.33 2775.5,3545C 2725.23,3546.65 2674.89,3546.99 2624.5,3546C 2587.2,3543.13 2553.53,3530.79 2523.5,3509C 2506.79,3495.29 2494.29,3478.46 2486,3458.5C 2482.98,3450.07 2480.98,3441.41 2480,3432.5C 2479.33,3376.83 2479.33,3321.17 2480,3265.5C 2482.72,3248.74 2489.72,3234.07 2501,3221.5C 2527.68,3193.4 2560.18,3175.57 2598.5,3168C 2612.57,3165.56 2626.57,3163.73 2640.5,3162.5 Z"/></g>
<g><path style="opacity:0.977" fill="#009ee3" d="M 3158.5,3162.5 C 3210.71,3158.31 3260.37,3167.48 3307.5,3190C 3343.55,3207.39 3367.39,3235.22 3379,3273.5C 3380.39,3278.76 3381.39,3284.09 3382,3289.5C 3382.67,3336.83 3382.67,3384.17 3382,3431.5C 3379.73,3450.71 3372.06,3467.37 3359,3481.5C 3332.87,3508.25 3301.71,3526.75 3265.5,3537C 3219.56,3549.08 3173.23,3550.75 3126.5,3542C 3078.38,3532.04 3038.88,3508.21 3008,3470.5C 2996.55,3453.6 2990.22,3434.93 2989,3414.5C 2988.33,3371.17 2988.33,3327.83 2989,3284.5C 2993.07,3255.85 3005.91,3232.02 3027.5,3213C 3066.16,3183.28 3109.82,3166.45 3158.5,3162.5 Z M 3163.5,3198.5 C 3210.86,3194.01 3254.2,3204.84 3293.5,3231C 3310.86,3244.22 3322.36,3261.39 3328,3282.5C 3328.67,3331.17 3328.67,3379.83 3328,3428.5C 3322.32,3449.03 3310.82,3465.53 3293.5,3478C 3246.86,3509.72 3195.86,3519.39 3140.5,3507C 3111.99,3499.42 3086.66,3486.08 3064.5,3467C 3053.5,3456.33 3046.34,3443.5 3043,3428.5C 3042.33,3379.83 3042.33,3331.17 3043,3282.5C 3049.61,3255.12 3065.45,3234.95 3090.5,3222C 3113.5,3209.61 3137.84,3201.78 3163.5,3198.5 Z"/></g>
<g><path style="opacity:0.989" fill="#009ee3" d="M 3599.5,3162.5 C 3691.17,3162.33 3782.83,3162.5 3874.5,3163C 3882.55,3163.42 3888.05,3167.25 3891,3174.5C 3891.67,3198.17 3891.67,3221.83 3891,3245.5C 3888.42,3252.05 3883.58,3255.55 3876.5,3256C 3866.18,3257.83 3856.51,3256.16 3847.5,3251C 3844.67,3249.5 3842.5,3247.33 3841,3244.5C 3840.5,3228.84 3840.33,3213.17 3840.5,3197.5C 3772.83,3197.5 3705.17,3197.5 3637.5,3197.5C 3637.67,3310.17 3637.5,3422.83 3637,3535.5C 3633.53,3541.64 3628.36,3545.47 3621.5,3547C 3614.5,3547.67 3607.5,3547.67 3600.5,3547C 3594.22,3545.95 3589.38,3542.78 3586,3537.5C 3585.33,3415.83 3585.33,3294.17 3586,3172.5C 3589.53,3167.8 3594.03,3164.46 3599.5,3162.5 Z"/></g>
<g><path style="opacity:0.984" fill="#009ee3" d="M 4108.5,3162.5 C 4115.51,3162.33 4122.51,3162.5 4129.5,3163C 4137.14,3164.64 4142.3,3169.14 4145,3176.5C 4145.67,3296.5 4145.67,3416.5 4145,3536.5C 4139,3545.18 4130.67,3548.84 4120,3547.5C 4111.66,3548.37 4104.16,3546.37 4097.5,3541.5C 4096.14,3539.97 4094.97,3538.3 4094,3536.5C 4093.33,3415.5 4093.33,3294.5 4094,3173.5C 4097.55,3167.99 4102.38,3164.33 4108.5,3162.5 Z"/></g>
<g><path style="opacity:0.986" fill="#009ee3" d="M 4363.5,3162.5 C 4443.18,3162.04 4522.85,3162.54 4602.5,3164C 4641.88,3169.03 4676.55,3184.36 4706.5,3210C 4724.27,3226.02 4735.43,3245.85 4740,3269.5C 4740.67,3358.17 4740.67,3446.83 4740,3535.5C 4738.53,3540.97 4735.03,3544.47 4729.5,3546C 4718.74,3548.24 4708.07,3547.91 4697.5,3545C 4694.33,3543.17 4691.83,3540.67 4690,3537.5C 4689.67,3449.17 4689.33,3360.83 4689,3272.5C 4685.46,3253.57 4675.96,3238.41 4660.5,3227C 4633.2,3209.12 4603.2,3199.46 4570.5,3198C 4514.17,3197.5 4457.83,3197.33 4401.5,3197.5C 4401.67,3310.17 4401.5,3422.83 4401,3535.5C 4397.53,3541.64 4392.36,3545.47 4385.5,3547C 4378.5,3547.67 4371.5,3547.67 4364.5,3547C 4358.22,3545.95 4353.38,3542.78 4350,3537.5C 4349.33,3415.83 4349.33,3294.17 4350,3172.5C 4353.37,3167.57 4357.87,3164.24 4363.5,3162.5 Z"/></g>
<g><path style="opacity:0.984" fill="#009ee3" d="M 5094.5,3162.5 C 5170.83,3162.33 5247.17,3162.5 5323.5,3163C 5329.5,3164.34 5333.67,3167.84 5336,3173.5C 5336.17,3247.67 5336.33,3321.83 5336.5,3396C 5336.65,3472.86 5336.15,3549.69 5335,3626.5C 5332.48,3637.53 5327.82,3647.53 5321,3656.5C 5289.42,3692.71 5249.59,3713.88 5201.5,3720C 5195.19,3720.85 5188.85,3721.51 5182.5,3722C 5121.83,3722.67 5061.17,3722.67 5000.5,3722C 4986.37,3717.56 4982.87,3708.72 4990,3695.5C 4993.92,3691.29 4998.75,3688.79 5004.5,3688C 5060.83,3687.67 5117.17,3687.33 5173.5,3687C 5210.16,3684.58 5241.33,3670.41 5267,3644.5C 5276.16,3633.5 5281.5,3620.84 5283,3606.5C 5283.5,3586.5 5283.67,3566.5 5283.5,3546.5C 5216.17,3546.67 5148.83,3546.5 5081.5,3546C 5036.45,3540.22 4998.28,3521.06 4967,3488.5C 4953.29,3472.41 4945.63,3453.74 4944,3432.5C 4943.33,3376.17 4943.33,3319.83 4944,3263.5C 4946.5,3248.84 4952.5,3235.84 4962,3224.5C 4985,3198.86 5013.17,3181.36 5046.5,3172C 5062.45,3167.85 5078.45,3164.68 5094.5,3162.5 Z M 5112.5,3197.5 C 5169.5,3197.5 5226.5,3197.5 5283.5,3197.5C 5283.5,3302.17 5283.5,3406.83 5283.5,3511.5C 5223.83,3511.67 5164.17,3511.5 5104.5,3511C 5071.55,3509.43 5043.05,3497.59 5019,3475.5C 5006.91,3462.93 4999.58,3447.93 4997,3430.5C 4996.33,3377.83 4996.33,3325.17 4997,3272.5C 5001.15,3254.01 5010.65,3238.84 5025.5,3227C 5051.67,3208.67 5080.67,3198.83 5112.5,3197.5 Z"/></g>
</svg>
